<?xml version="1.0" encoding="utf-8" ?>
<svg xmlns="http://www.w3.org/2000/svg" xmlns:xlink="http://www.w3.org/1999/xlink" width="1024" height="1024">
	<path fill="#F93" transform="scale(2 2)" d="M251.559 154.434C251.601 147.401 248.409 134.04 255.889 132.049C261.989 132.351 260.792 138.528 260.78 142.893L260.747 154.434C283.593 170.452 335.702 189.927 320.738 226.562C319.312 230.054 314.766 237.074 314.042 239.786C313.589 241.483 313.777 265.593 314.138 268.536C320.346 263.3 330.406 258.825 338.01 255.61C337.96 251.391 339.074 241.059 345.62 247.358C347.768 249.424 347.241 252.884 347.261 255.61C361.125 264.212 375.929 266.282 378.941 285.557L396.042 285.557C396.882 278.417 396.743 270.169 397.053 262.886L397.648 247.056C397.823 242.656 398.168 238.186 397.811 233.79C389.99 231.639 392.666 225.479 400.471 224.945C399.968 216.699 401.491 210.567 409.868 207.342C409.862 203.842 408.313 196.281 413.633 195.971C420.017 195.599 418.73 203.146 418.814 207.342C426.476 211.295 429.996 216.052 428.08 224.945C436.535 225.644 437.514 232.262 430.508 233.79C430.389 240.703 430.944 247.6 431.274 254.5L432.67 285.45C432.922 291.449 433.325 297.399 433.073 303.405C439.725 304.313 440.599 311.64 433.817 312.488C433.473 329.684 434.846 348.221 434.995 365.661C435.054 372.624 437.681 378.046 429.444 378.563C422.953 378.971 416.317 378.678 409.806 378.679L259.438 378.677L90.7722 378.685C77.8316 378.681 76.8258 381.424 76.9823 368.252L77.0676 354.578L77.5644 334.181C77.7153 326.959 77.5997 319.712 77.5947 312.488C73.499 309.726 73.1585 305.878 77.5947 303.405C78.4866 298.798 78.4849 294.074 78.6849 289.398L80.715 247.741C80.9148 243.091 81.2617 238.448 81.2029 233.79C74.4416 232.322 75.5368 225.418 83.2457 224.945C83.0424 216.141 85.0264 210.82 93.7102 207.342C93.7247 203.586 93.9272 189.909 101.778 197.479C103.741 199.373 102.977 204.78 102.935 207.342C110.92 210.2 113.437 216.853 113.207 224.945C119.463 226.917 119.977 231.81 114.444 233.79C114.373 251.053 115.955 268.307 116.53 285.557L133.303 285.557C135.998 266.886 150.849 262.662 165.307 254.313C164.88 248.835 167.21 241.087 173.119 246.766C174.738 248.322 174.441 251.33 174.508 253.377C181.071 260.161 191.319 261.727 197.976 268.536C197.898 262.592 197.965 256.649 197.989 250.705C198.029 240.385 198.501 241.117 193.643 232.12C175.568 198.645 208.588 180.378 233.06 165.949C239.316 162.259 245.419 158.312 251.559 154.434ZM255.889 161.987C248.852 166.649 241.67 171.005 234.444 175.366C211.137 189.433 185.74 203.409 204.504 232.888L255.889 232.888L307.558 232.888C312.117 224.64 315.961 217.541 313.186 207.938C308.218 190.741 284.837 179.833 270.703 171.323C266.866 169.012 259.423 163.529 255.889 161.987ZM97.6813 215.304C91.3195 216.931 87.4402 226.029 98.9245 224.945C100.922 225.022 102.884 225.042 104.882 224.945C104.425 219.954 103.395 215.571 97.6813 215.304ZM413.049 215.304C408.309 217.315 408.145 220.502 409.868 224.945L416.027 224.945C416.953 224.962 417.889 225.009 418.814 224.945C419.627 222.94 419.795 221.396 419.716 219.247C418.105 216.42 416.289 215.092 413.049 215.304ZM90.4271 233.79C90.4843 240.308 89.94 246.765 89.5954 253.266L88.0484 283.288C87.7019 289.964 87.1241 296.723 87.4701 303.405L104.882 303.405L108.23 303.405C108.307 297.292 107.803 291.147 107.546 285.038L106.237 252.111C106.008 246.035 105.273 239.862 105.713 233.79L90.4271 233.79ZM406.916 233.79C407.188 240.583 406.697 247.488 406.441 254.281L405.134 286.746C404.889 292.285 404.379 297.858 404.545 303.405L421.528 303.405C427.207 303.57 424.157 295.052 423.901 289.364L422.169 251.158C421.928 245.391 421.317 239.561 421.528 233.79L406.916 233.79ZM206.977 241.745C206.851 246.363 206.987 250.99 206.977 255.61L304.991 255.61L304.991 241.745L206.977 241.745ZM169.788 261.73C159.314 268.97 145.573 271.298 142.518 285.557C151.956 285.765 161.433 285.553 170.875 285.557L197.976 285.557C193.603 273.557 188.105 271.951 177.406 266.33C174.799 264.96 172.528 262.817 169.788 261.73ZM342.514 263.254C330.565 270.583 319.293 270.465 314.138 285.557L342.514 285.557L369.682 285.557C367.961 278.782 364.553 274.846 358.571 271.27C357.325 270.525 342.712 263.283 342.514 263.254ZM206.977 264.788C207.142 268.881 206.989 272.974 206.982 277.069L206.977 369.664L227.392 369.664L227.383 339.789C227.385 305.409 229.722 310.278 255.889 287.531C263.596 296.317 274.891 300.796 280.892 311.642C285.518 320.38 284.529 329.978 284.53 339.522L284.521 369.664L304.991 369.664L304.99 299.57C304.99 288 304.685 276.347 304.991 264.788L206.977 264.788ZM117.248 294.52C117.23 300.35 117.571 306.168 117.752 311.992L118.931 348.611C119.147 355.619 119.471 362.651 119.275 369.664L148.915 369.664L148.897 349.643C148.872 318.667 153.778 329.459 168.661 312.488C173.412 317.884 179.989 321.082 184.317 326.875C188.087 332.636 187.693 338.105 187.671 344.748L187.629 360.925C187.621 363.818 187.483 366.779 187.648 369.664L197.976 369.664L197.976 294.52L117.248 294.52ZM315.024 294.52L314.426 294.675C313.641 296.132 314.138 362.775 314.138 369.664L326.322 369.664L326.308 349.311C326.307 340.242 325.045 331.543 332.061 324.572C336.53 320.132 342.77 317.767 346.375 312.488C356.177 323.844 366.074 322.508 365.672 341.875L365.672 369.664L393.668 369.664C392.449 354.265 394.683 335.871 394.438 319.947C394.303 311.196 395.223 302.776 395.086 294.52L315.024 294.52ZM255.889 299.696C235.868 314.255 236.439 315.808 236.438 338.135L236.453 369.664L256.875 369.664L275.525 369.664L275.514 340.689C275.516 316.585 276.62 315.483 255.889 299.696ZM86.4593 312.488C86.4676 330.699 85.1653 351.956 85.894 369.664L109.693 369.664L110.105 369.533C111.241 365.21 109.821 336.891 109.624 331.501C109.397 325.303 108.385 318.641 109.195 312.488L86.4593 312.488ZM404.545 312.488L404.006 312.704C402.57 316.717 402.485 359.786 402.513 369.664L423.988 369.664C424.707 369.63 425.565 369.691 426.211 369.381C427.015 351.17 424.441 331.292 424.821 312.488L404.545 312.488ZM168.661 324.942C156.796 332.906 157.948 335.743 157.969 348.726L157.993 369.664L168.661 369.664L178.725 369.664L178.741 350.13C178.743 338.577 180.4 331.312 168.661 324.942ZM346.375 324.942C334.057 333.376 335.441 334.171 335.45 347.936L335.467 369.664L346.375 369.664L356.73 369.664L356.747 347.087C356.747 340.762 358.219 335.139 353.423 330.277C352.195 329.032 347.918 325.098 346.375 324.942Z"/>
</svg>
