<?xml version="1.0" encoding="utf-8" ?>
<svg xmlns="http://www.w3.org/2000/svg" xmlns:xlink="http://www.w3.org/1999/xlink" width="1024" height="1024">
	<path fill="#F93" transform="scale(2 2)" d="M185.729 122.725C185.71 118.568 185.007 105.716 186.301 102.631C188.433 97.5519 211.803 107.572 222.152 82.8607C223.452 79.756 223.713 74.4877 227.264 73.1935C233.213 73.0855 284.989 72.5443 286.777 73.7648C290.441 76.2673 290.393 101.862 318.385 100.832C321.421 100.72 325.758 99.4848 326.524 103.643C327.235 107.504 326.731 118.176 326.715 122.725C331.642 122.78 336.578 122.7 341.506 122.689C355.594 122.658 352.473 125.156 352.473 138.376L352.457 163.179C372.144 163.101 371.919 159.723 371.909 177.194L371.889 197.015C375.125 197.015 392.644 196.448 394.238 197.455C399.142 200.553 393.29 206.125 391.134 208.972C387.409 213.892 383.171 218.896 379.964 224.137L379.749 224.492L379.747 406.346C379.746 413.88 379.545 421.46 379.749 428.99C382.315 428.977 400.181 428.057 393.125 436.259C390.568 439.231 374.438 437.751 370.376 437.751L295.2 437.739C291.588 437.729 274.564 439.879 274.518 433.746C274.462 426.476 293.896 429.009 299.985 428.99L299.996 295.564C300 273.826 299.873 259.857 280.413 245.003C254.781 228.355 218.863 242.065 213.092 273.12C211.818 279.976 212.28 287.357 212.278 294.308L212.285 428.99L226.374 428.983C229.761 428.985 237.038 427.909 237.688 432.791C238.656 440.068 221.747 437.759 218.009 437.758L131.306 437.759C128.033 437.777 123.153 438.65 120.466 436.29C118.656 434.701 118.315 432.051 120.139 430.331C122.667 427.946 129.13 428.967 132.497 428.99L132.497 224.492C128.92 220.628 119.412 208.496 116.813 203.727C112.597 195.99 123.659 196.984 127.428 196.989L141.256 197.015C141.257 188.005 141.891 177.711 140.861 168.872C139.835 160.066 153.244 163.148 159.742 163.179L159.723 138.788C159.717 124.861 156.586 122.684 171.537 122.695L185.729 122.725ZM232.014 81.8071C227.74 99.2663 211.76 109.423 194.52 109.507L194.52 122.725L280.413 122.725L317.868 122.725C317.866 118.327 317.756 113.902 317.868 109.507C299.938 109.899 285.332 98.8943 280.413 81.8071L232.014 81.8071ZM168.539 131.632L168.539 163.179L285.199 163.179C304.687 163.18 324.21 163.441 343.693 163.179L343.693 131.632L187.607 131.63C181.282 131.629 174.852 131.377 168.539 131.632ZM286.151 171.94L195.077 171.943C179.967 171.943 164.781 172.305 149.683 171.94C149.672 180.249 149.299 188.725 149.683 197.015L227.264 197.015L363.241 197.015L363.241 171.94L286.151 171.94ZM240.686 205.917L129.349 205.917C131.968 209.853 139.468 218.215 140.787 221.655C141.889 224.531 141.254 270.807 141.256 277.777L203.651 277.777C204.964 244.217 239.188 222.6 270.938 230.941C290.918 237.106 307.91 256.335 308.662 277.777L371.079 277.777C371.079 271.442 370.573 222.826 371.395 220.958C373.094 217.098 379.554 210.433 382.276 205.917C377.057 205.704 371.775 205.912 366.547 205.915L240.686 205.917ZM141.256 286.56L141.256 308.251L203.651 308.251L203.651 286.56L141.256 286.56ZM309.809 286.56L308.891 286.777C308.164 288.201 308.666 305.295 308.662 308.251L370.312 308.251L370.868 308.093C371.608 305.892 371.073 290.192 371.079 286.56C364.314 286.769 357.493 286.562 350.722 286.561L309.809 286.56ZM182.123 316.806L141.256 316.806L141.256 370.123L162.937 370.123L203.651 370.123L203.651 316.806L182.123 316.806ZM308.662 316.806C308.283 334.544 308.663 352.375 308.662 370.123L371.079 370.123L371.088 334.704C371.09 328.766 371.311 322.735 371.079 316.806L308.662 316.806ZM157.63 378.553L141.256 378.553L141.256 428.99L166.379 428.99L166.379 407.563C166.368 403.704 165.983 399.449 166.574 395.64C167.091 392.308 171.306 389.956 173.82 392.966C175.951 395.519 175.018 401.402 175.105 404.529L175.105 428.99L203.651 428.99L203.651 378.553L157.63 378.553ZM311.321 378.553L308.662 378.553L308.652 412.684C308.65 418.05 308.3 423.654 308.662 428.99L336.967 428.99L336.958 408.168C336.943 405.01 335.872 395.891 338.163 393.486C345.179 386.12 345.768 399.547 345.759 403.402L345.725 414.375L345.725 428.99L371.079 428.99L371.079 378.553L311.321 378.553Z"/>
	<path fill="#F93" transform="scale(2 2)" d="M179.816 257.567C155.454 255.951 156.234 229.53 175.105 224.492C178.282 224.722 181.012 224.78 183.973 226.082C199.225 232.791 195.917 251.346 179.816 257.567ZM175.739 233.813C166.814 236.79 169.247 249.955 178.936 248.21C187.79 245.159 185.795 231.648 175.739 233.813Z"/>
	<path fill="#F93" transform="scale(2 2)" d="M338.358 257.567C316.404 259.978 311.148 229.639 333.111 225.313C354.015 222.978 360.527 252.043 338.358 257.567ZM335.062 233.813C323.673 235.899 326.405 250.2 336.092 249.168C346.096 246.646 345.755 234.155 335.062 233.813Z"/>
</svg>
