<?xml version="1.0" encoding="utf-8" ?>
<svg xmlns="http://www.w3.org/2000/svg" xmlns:xlink="http://www.w3.org/1999/xlink" width="1024" height="1024">
	<path fill="#F93" transform="scale(2 2)" d="M251.209 99.863C251.252 94.9444 249.241 88.3544 255.091 86.2753C262.928 85.8642 260.99 94.6142 261.008 99.863C273.916 109.453 280.215 127.04 269.483 140.737L269.483 147.994L281.424 147.959C296.32 147.807 292.361 152.408 292.245 166.268C294.794 166.254 298.946 165.682 300.915 167.63C305.876 172.536 299.49 175.519 294.342 175.497C295.828 181.874 297.32 188.247 298.908 194.599C311.89 194.483 309.019 203.189 301.61 204.236C301.963 210.023 303.958 215.638 304.918 221.346L306.678 221.358C319.315 221.406 316.284 231.23 307.48 230.574C308.337 236.204 309.641 241.834 310.85 247.397C324.709 247.295 320.911 257.619 312.828 257.125C313.665 262.983 314.774 269.002 316.623 274.63C318.988 274.672 322.023 274.381 323.976 275.971C329.232 280.247 323.552 283.771 318.224 284.01C319.315 289.274 320.292 294.564 321.313 299.843C329.297 300.232 330.996 307.146 323.31 309.34C325.419 319.359 327.236 329.543 329.571 339.5C330.167 332.696 338.009 282.306 340.578 279.537C343.405 278.08 348.246 279.016 351.341 279.235C351.379 274.009 350.981 268.65 351.341 263.445C354.241 259.856 359.491 259.388 360.433 264.891C361.003 268.225 360.448 275.411 360.436 279.235C363.769 278.807 369.223 277.655 371.921 280.05C374.228 284.981 375.845 300.798 376.845 306.887L385.567 359.075C386.258 363.124 387.1 367.166 387.147 371.286L378.325 371.286C373.039 343.772 369.684 315.896 364.334 288.415L347.357 288.415C342.67 316.07 338.191 343.792 332.596 371.286L323.31 371.286C323.407 367.532 324.837 363.819 324.628 360.124C324.35 355.199 322.153 347.67 321.063 342.527L314.375 309.34L304.073 309.34L304.073 299.843L312.828 299.843C310.897 294.809 310.042 289.278 308.927 284.01L261.008 284.01L202.64 284.01C201.401 289.234 200.533 294.555 199.615 299.843C202.365 299.783 205.111 299.812 207.861 299.843C207.899 303.006 207.862 306.175 207.861 309.34L197.641 309.34C196.609 315.631 195.201 321.869 193.969 328.123L190.113 348.573C187.574 361.446 186.36 358.648 189.741 371.286L178.223 371.286C177.462 362.782 175.826 354.32 174.593 345.872L165.66 288.415L147.357 288.415C142.262 315.894 138.544 343.682 134.171 371.286L125.484 371.286C125.001 360.101 129.504 341.657 131.337 330.002L136.685 296.426C139.335 279.801 134.907 279.244 151.54 279.235C151.559 275.256 150.937 267.099 151.638 263.632C152.316 260.276 156.232 257.91 159.06 260.738C161.726 263.404 160.759 275.339 160.741 279.235C163.712 279.238 170.669 278.318 172.949 280.498C175.21 282.659 177.506 304.937 178.138 309.033L180.532 325.102C181.231 329.534 182.087 333.948 182.563 338.412C184.512 328.749 186.624 319.051 188.288 309.34C180.724 308.543 181.611 299.999 189.741 300.487C191.004 295.084 192.245 289.533 192.842 284.01C184.861 284.367 179.998 273.969 195.563 274.63C195.907 268.768 197.874 262.954 198.733 257.125C191.949 257.289 188.243 247.808 200.527 247.397C202.358 241.934 203.329 236.166 204.706 230.574C196.258 231.545 194.538 220.319 207.861 221.346C207.912 215.522 210.142 209.999 210.9 204.236C204.342 204.914 199.855 193.981 213.212 194.599C214.557 188.498 215.872 182.421 217.588 176.409C208.096 174.953 207.119 166.643 219.802 166.268C219.58 163.317 220.321 150.744 222.236 149.015C224.166 147.272 238.662 147.986 242.079 147.994C242.137 145.572 242.12 143.159 242.079 140.737C231.91 126.612 239.144 110.32 251.209 99.863ZM256.236 108.469C251.255 112.647 247.261 118.019 246.668 124.677C245.848 133.875 248.466 132.141 256.236 132.084C258.242 132.096 262.981 132.701 264.576 131.587C268.821 123.459 261.5 113.953 256.236 108.469ZM251.209 141.485C251.422 143.724 251.499 145.753 251.209 147.994C254.164 148 257.201 148.156 260.146 147.994L260.146 141.485L251.209 141.485ZM231.559 157.155L230.8 157.271C230.035 158.39 229.21 164.485 228.814 166.268L281.125 166.268L283.966 166.268C283.38 163.316 282.721 160.167 282.642 157.155L231.559 157.155ZM227.372 175.497C225.506 181.729 223.925 188.197 222.765 194.599L235.51 194.599L235.51 204.236L220.235 204.236C219.615 209.988 217.947 215.723 216.6 221.346L285.109 221.346L295.718 221.346C294.625 215.6 292.745 210.09 292.245 204.236L276.71 204.236C276.667 201.024 276.593 197.811 276.71 194.599L289.431 194.599C288.184 188.206 286.142 181.908 285.109 175.497L227.372 175.497ZM215.693 230.574C212.533 230.845 211.083 244.467 210.9 247.397L235.51 247.397L235.51 257.125L208.645 257.125L204.706 274.63L275.125 274.63L307.48 274.63C305.844 269.049 304.14 262.963 304.073 257.125C295.778 257.33 294.807 249.253 301.61 247.397C300.435 241.931 298.736 236.18 298.908 230.574L215.693 230.574Z"/>
	<path fill="#F93" transform="scale(2 2)" d="M247.747 204.236L247.747 194.599L264.598 194.599L264.598 204.236L247.747 204.236Z"/>
	<path fill="#F93" transform="scale(2 2)" d="M247.747 257.125L247.747 247.397L264.598 247.397C264.727 250.623 264.61 253.894 264.598 257.125L247.747 257.125Z"/>
	<path fill="#F93" transform="scale(2 2)" d="M276.71 257.125C276.636 253.875 276.603 250.646 276.71 247.397L292.245 247.397C292.311 250.635 292.249 253.886 292.245 257.125L276.71 257.125Z"/>
	<path fill="#F93" transform="scale(2 2)" d="M220.235 309.34C220.216 305.09 218.473 299.881 222.765 299.843L235.51 299.843C235.48 302.975 236.925 309.157 234.062 309.34L220.235 309.34Z"/>
	<path fill="#F93" transform="scale(2 2)" d="M247.747 309.34L247.747 299.843L264.598 299.843C264.42 303.029 264.462 306.155 264.598 309.34L247.747 309.34Z"/>
	<path fill="#F93" transform="scale(2 2)" d="M276.71 309.34L276.71 299.843L292.245 299.843L292.245 309.34C290.957 309.803 279.189 309.344 276.71 309.34Z"/>
	<path fill="#F93" transform="scale(2 2)" d="M229.673 414.127L229.666 378.353C229.662 359.906 228.754 339.991 254.164 337.603C265.919 336.573 278.922 344.35 281.785 356.189C283.374 362.76 282.651 372.21 282.652 379.098L282.642 414.127L307.48 414.127L307.46 398.822C307.436 396.051 307.066 392.841 307.52 390.118C308.3 385.435 315.411 385.114 316.349 389.873C316.923 392.789 316.642 396.163 316.636 399.136L316.623 414.127C322.453 414.207 328.296 414.129 334.127 414.127C334.123 409.935 332.705 390.312 335.581 387.882C338.57 385.356 341.356 386.797 343.456 389.443C343.678 392.102 343.482 394.89 343.477 397.564L343.456 414.127L360.436 414.127L360.406 398.883C360.401 396.118 359.577 390.718 361.399 388.359C363.746 385.319 368.748 386.461 369.574 390.243C370.164 392.945 369.853 396.166 369.852 398.94L369.833 414.127C375.597 414.225 381.381 414.128 387.147 414.127C387.228 409.707 386.094 390.937 388.376 388.26C389.991 386.366 393.062 385.95 394.945 387.696C397.829 390.37 396.476 409.397 396.564 414.127L413.464 414.127C413.412 410.294 412.625 390.648 414.439 388.443C417.024 385.303 421.857 386.616 422.532 390.505C423.01 393.254 422.764 396.304 422.762 399.096L422.736 414.127C425.438 414.074 429.589 413.481 431.658 415.532C433.229 417.088 433.275 420.368 431.664 421.918C428.737 424.736 415.189 423.308 411.155 423.308L262.125 423.312L103.079 423.312C99.2557 423.311 84.7842 424.144 82.6698 422.221C76.758 416.844 84.2705 414.155 89.5192 414.127C89.5116 409.561 88.0188 390.55 91.355 387.666C93.8235 385.533 97.0313 387.256 98.7598 389.443C99.1121 397.611 98.7697 405.943 98.7598 414.127C104.561 414.308 110.422 414.133 116.229 414.127L116.196 398.854C116.19 392.784 116.865 379.999 125.484 389.443C125.663 392.17 125.509 394.978 125.504 397.713L125.484 414.127L142.228 414.127L142.199 399.061C142.195 395.994 141.333 390.608 143.598 388.104C145.922 385.535 150.744 386.368 151.346 389.939C151.816 392.724 151.566 395.814 151.565 398.642L151.54 414.127C157.29 414.223 163.056 414.13 168.807 414.127C168.807 408.075 165.703 386.909 173.322 386.539C179.47 386.24 178.242 395.85 178.241 399.625L178.223 414.127L195.563 414.127C195.569 405.912 195.349 397.654 195.563 389.443C196.675 387.912 198.057 386.322 200.123 386.293C205.992 386.21 204.734 395.645 204.731 399.308L204.706 414.127L229.673 414.127ZM253.38 347.066C236.55 349.643 238.885 366.393 238.888 378.902L238.9 414.127L258.688 414.127L273.537 414.127L273.536 379.589C273.539 364.194 275.747 345.164 253.38 347.066Z"/>
</svg>
