<?xml version="1.0" encoding="utf-8" ?>
<svg xmlns="http://www.w3.org/2000/svg" xmlns:xlink="http://www.w3.org/1999/xlink" width="1024" height="1024">
	<path fill="#F93" transform="scale(2 2)" d="M233.56 101.575C235.091 90.1543 241.391 81.1447 253.383 79.3256C268.166 78.1017 276.05 88.0497 278.819 101.575C298.18 109.777 306.276 128.267 308.697 148.197C324.188 152.726 319.724 170.111 318.988 182.202C318.228 194.698 320.412 204.789 310.036 213.575C344.073 220.106 352.518 228.041 357.58 260.519L366.223 314.891C368.479 328.876 371.361 336.628 365.123 350.026C377.839 350.812 388.92 354.122 397.88 363.681C414.359 381.263 411.362 405.807 394.426 421.633C398.631 421.61 409.02 420.648 411.995 423.23C415.731 426.473 412.452 431.018 408.392 431.325C403.521 431.694 398.28 431.307 393.375 431.307L259.688 431.312L120.951 431.312C113.607 431.316 102.288 434.145 99.5806 426.664C101.656 418.962 111.557 421.604 117.631 421.633C87.9538 393.831 110.4 347.854 147.363 350.026C139.593 334.12 144.079 322.22 146.956 305.449L154.984 257.683C160.184 228.31 171.756 218.726 201.889 213.575C191.368 205.503 193.849 194.993 193.242 183.03C192.649 171.334 188.222 151.372 204.388 148.197C204 130.116 215.701 107.097 233.56 101.575ZM254.785 88.7986C241.901 91.503 246.356 101.034 240.53 107.909C238.534 110.263 234.705 111.424 232.143 113.147C220.184 121.192 215.028 133.565 213.911 147.526C224.807 128.486 240.608 132.232 259.688 132.267C276.359 132.217 290.265 131.29 298.509 148.197C297.671 134.286 291.922 120.439 279.714 112.855C277.227 111.309 273.741 110.278 271.831 108.009C266.739 101.961 269.001 88.1748 254.785 88.7986ZM237.373 141.981C216.976 144.352 222.2 164.452 216.581 168.676C221.471 185.22 228.452 204.529 244.535 213.266C253.484 218.127 262.499 217.081 270.62 211.393C284.646 201.231 291.845 183.925 296.456 167.751C288.511 165.717 295.419 148.096 278.574 142.722C274.83 141.527 244.573 141.485 237.373 141.981ZM204.388 158.682C199.752 163.512 202.387 175.609 202.689 182.371C202.946 188.118 201.333 211.873 213.911 204.904C219.652 199.955 215.447 194.621 213.139 189.127C210.643 183.182 208.191 176.712 206.76 170.422C206.341 168.58 205.185 159.633 204.388 158.682ZM308.046 158.682C306.292 168.592 304.227 176.3 300.679 185.728C298.474 191.584 292.04 199.657 298.509 204.904C308.597 207.947 308.363 198.413 308.753 191.679L309.435 179.646C309.701 174.849 312.346 161.271 308.046 158.682ZM287.869 208.281C270.387 227.691 251.72 233.956 230.011 214.218C228.056 212.44 226.447 210.656 225.255 208.281C216.212 220.384 217.645 220.475 202.232 223.127C176.183 227.608 168.516 236.255 164.294 260.991L155.636 312.632C149.808 348.016 150.213 347.333 185.689 360.048L225.255 374.312C226.488 371.995 234.335 358.823 234.329 357.574L233.56 357.227C216.243 347.186 193.252 336.694 175.113 328.32C172.042 326.903 165.77 325.07 164.902 321.253C164.335 318.763 166.494 315.908 168.988 315.625C172.18 315.263 175.858 318.106 178.543 319.594C181.573 308.332 183.976 295.958 186.358 284.497C187.256 280.176 187.82 264.199 195.374 266.972C201.85 269.35 204.966 292.224 207.437 299.687C241.909 291.403 269.97 275.754 289.232 244.376C293.602 237.258 298.187 228.06 300.008 219.895C293.057 215.753 290.625 210.041 287.869 208.281ZM309.484 223.156C306.155 230.696 304.007 237.344 299.961 244.715C280.623 279.95 246.285 302.039 207.437 309.289C207.479 317.109 206.618 324.331 205.083 332.002C209.413 334.395 240.711 350.355 242.279 350.574C249.804 351.625 258.704 348.811 268.827 350.66L291.492 339.647C296.863 336.984 302.345 333.867 308.046 332.002C306.163 324.273 304.816 316.294 305.209 308.303L287.7 308.32C284.623 308.331 278.336 309.454 275.924 306.988C272.903 303.899 275.177 299.314 279.092 298.834C282.056 298.471 285.313 298.802 288.314 298.818L305.209 298.805C305.846 290.846 308.56 271.158 316.435 266.602C324.38 263.581 325.182 280.329 326.29 285.559C328.686 296.878 330.925 308.219 333.043 319.594C347.994 312.058 348.058 322.247 343.6 325.193C339.582 327.848 333.899 330 329.488 332.145L297.253 347.732C290.895 350.769 284.026 353.493 278.069 357.227C279.922 362.11 284.798 369.98 287.869 374.312C294.879 370.881 302.582 368.697 309.967 366.193C318.033 363.458 345.799 354.781 351.735 350.714C363.048 342.964 358.628 329.134 356.839 318.017L352.55 290.944C349.058 268.799 350.687 235.393 325.187 227.028C320.07 225.349 314.65 224.698 309.484 223.156ZM316.435 286.103C313.314 299.729 314.395 314.099 316.435 327.785C317.814 326.968 319.111 326.309 320.652 325.827C321.678 325.007 322.812 324.29 324.065 323.869C323.312 319.755 317.644 287.951 316.435 286.103ZM195.325 289.174C193.794 293.682 192.955 298.604 191.952 303.258L187.518 323.869C189.353 324.342 190.858 324.884 192.517 325.827C193.764 326.491 195.007 327.218 196.301 327.785C197.255 321.818 198.47 294.066 195.325 289.174ZM145.913 359.757C105.267 360.996 103.118 416.54 140.102 421.279C144.038 421.784 148.087 421.631 152.05 421.634L349.921 421.635C363.577 421.65 377.823 423.289 388.831 413.399C409.865 394.142 396.038 360.912 367.693 359.906C356.794 359.519 346.493 363.661 336.39 367.186L295.548 381.6C288.848 383.969 282.076 387.018 275.137 388.558C249.78 394.189 235.429 388.194 212.831 380.045L173.871 366.322C165.308 363.371 155.239 358.382 145.913 359.757ZM252.288 359.757C249.471 360.042 246.693 360.263 243.86 360.323C240.923 365.864 236.5 371.807 235.064 377.898C242.564 379.717 252.805 381.211 260.442 380.267C266.235 380.136 272.474 379.477 278.069 377.898C275.377 372.464 270.56 365.707 268.827 360.323C263.306 360.1 257.82 359.58 252.288 359.757Z"/>
	<path fill="#F93" transform="scale(2 2)" d="M247.176 171.677C243.98 171.839 235.952 172.284 233.2 170.952C228.59 168.72 230.574 163.153 235.064 162.253C238.132 162.264 246.134 161.65 248.689 162.764C253.494 164.86 251.028 170.295 247.176 171.677Z"/>
	<path fill="#F93" transform="scale(2 2)" d="M263.567 171.677C259.266 168.608 259.965 163.393 265.094 162.253C268.271 162.239 276.074 161.595 278.585 162.927C282.874 165.203 280.622 170.586 276.733 171.677C272.37 171.858 267.939 171.696 263.567 171.677Z"/>
</svg>
