<?xml version="1.0" encoding="utf-8" ?>
<svg xmlns="http://www.w3.org/2000/svg" xmlns:xlink="http://www.w3.org/1999/xlink" width="1024" height="1024">
	<path fill="#F93" transform="scale(2 2)" d="M251.476 168.186C251.506 162.26 248.893 149.942 255.372 148.045C263.51 148.067 260.539 162.328 260.513 168.186C286.506 172.593 298.07 190.047 298.077 215.726L310.715 215.699C325.82 215.627 322.671 218.67 322.661 232.539L322.654 255.723L331.57 255.723C331.568 250.929 331.148 245.954 331.394 241.191C331.693 235.428 336.684 234.724 339.824 238.766L339.824 255.723L352.713 255.723C352.697 251.782 351.761 240.492 354.016 237.635C356.77 234.148 360.76 236.712 361.403 240.263C362.058 243.887 361.543 251.685 361.518 255.723L374.448 255.723C374.447 251.756 373.886 243.826 374.418 240.302C374.9 237.107 378.579 234.11 381.372 237.102C383.956 239.871 382.989 251.748 382.961 255.723L393.292 255.723L393.292 236.467C386.857 235.175 387.038 228.347 393.292 227.663C391.644 202.033 393.027 207.041 413.485 194.095C413.467 190.098 411.622 178.391 419.051 180.3C420.673 180.717 421.461 182.007 422.27 183.362C422.355 186.932 422.272 190.523 422.27 194.095C447.078 208.673 442.614 201.135 443.225 227.663C449.285 227.878 449.101 235.875 443.225 236.467L443.237 343.742C443.237 348.784 445.441 362.693 438.777 363.253C432.779 363.757 426.405 363.328 420.377 363.324L264.875 363.316L95.3361 363.318C88.6345 363.319 81.7473 363.695 75.0684 363.324C66.4346 362.843 69.3328 350.435 69.3316 343.211L69.3339 236.467C62.6074 236.088 63.3899 228.558 69.3339 227.663C69.3404 224.086 68.7361 210.33 69.7014 207.783C70.6679 205.232 86.6696 196.182 89.6995 194.935C89.6635 191.433 88.7226 173.661 97.4333 181.822C99.3165 183.586 98.4876 192.089 98.5066 194.935C103.457 197.942 116.018 204.793 119.195 208.47L119.195 227.663C125.541 229.47 124.967 234.845 119.195 236.467L119.195 254.513L130.635 254.513C130.638 250.522 128.408 235.689 135.94 237.066C137.673 237.383 138.799 238.661 139.725 240.058C139.919 244.853 139.745 249.712 139.725 254.513L150.539 254.513C150.559 250.696 149.496 241.225 151.932 238.48C153.433 236.787 156.554 236.479 158.209 238.117C160.761 240.643 159.771 250.652 159.744 254.513L170.68 254.513C170.712 250.752 169.725 242.037 171.669 239.115C172.769 237.462 175.932 236.043 177.755 237.345C182.249 240.554 179.276 249.829 180.467 254.513L189.422 254.513L189.411 235.154C189.409 210.905 189.007 215.651 213.582 215.726C213.031 190.886 226.001 171.993 251.476 168.186ZM255.372 176.85C243.977 177.718 231.215 184.035 226.334 194.935L257.125 194.935C266.523 194.936 275.941 195.079 285.336 194.935C279.476 184.137 267.832 176.604 255.372 176.85ZM417.617 202.72C412.265 205.091 406.944 208.403 402.263 211.917L402.263 227.663L419.375 227.663L434.234 227.663L434.234 211.917C431.763 209.97 420.252 202.537 417.617 202.72ZM93.5777 202.72C88.4658 205.928 82.8271 208.804 78.2224 212.714L78.2224 227.663L95.125 227.663L110.19 227.663L110.19 212.714C107.779 211.268 95.2177 202.559 93.5777 202.72ZM222.545 203.75C222.676 207.746 222.458 211.733 222.545 215.726L289.072 215.726C289.122 211.748 288.759 207.711 289.072 203.75L222.545 203.75ZM198.748 224.543L198.765 247.703C198.771 261.771 202.001 263.329 187.635 263.278L119.195 263.253L119.195 354.609L137.347 354.609L137.337 327.957C137.337 320.575 136.572 312.203 138.44 305.056C144.89 280.375 182.639 281.573 188.575 306.171C190.142 312.666 189.433 320.264 189.432 326.938L189.422 354.609L212.004 354.609L211.995 314.104C211.993 294.463 209.623 276.825 228.413 264.429C232.028 262.044 251.922 250.879 255.372 249.952C266.234 252.919 285.694 263.254 292.193 271.364C301.437 283.361 299.578 296.401 299.578 310.697L299.582 354.609L322.654 354.609L322.647 325.525C322.647 319.604 321.984 312.466 323.309 306.758C329.211 281.327 367.467 280.882 373.709 306.149C375.17 312.061 374.464 319.646 374.463 325.804L374.448 354.609L393.292 354.609L393.292 264.283L326.297 264.314C310.709 264.374 313.723 262.995 313.728 248.425L313.743 224.543L198.748 224.543ZM78.2224 236.467L78.2224 354.609L110.19 354.609L110.19 236.467L78.2224 236.467ZM402.263 236.467L402.263 354.609L434.234 354.609L434.234 236.467L402.263 236.467ZM255.372 259.506C251.027 261.57 246.864 264.041 242.686 266.42C216.702 281.218 220.812 290.073 220.815 315.875C220.817 328.78 220.645 341.707 220.815 354.609L257.125 354.609L290.736 354.609L290.74 313.135C290.741 282.379 292.683 276.394 261.132 262.015C259.326 261.192 257.276 260.03 255.372 259.506ZM161.918 296.103C144.45 297.377 146.308 313.288 146.346 325.967L146.351 354.609L165.612 354.609L180.467 354.609L180.477 325.612C180.476 320.29 181.064 314.185 179.955 309.003C178.325 301.384 169.935 294.419 161.918 296.103ZM347.914 296.103C329.936 297.426 331.521 312.908 331.564 326.143L331.57 354.609L349.188 354.609L365.594 354.609L365.597 325.622C365.602 311.836 366.843 295.909 347.914 296.103Z"/>
</svg>
