<?xml version="1.0" encoding="utf-8" ?>
<svg xmlns="http://www.w3.org/2000/svg" xmlns:xlink="http://www.w3.org/1999/xlink" width="1024" height="1024">
	<path fill="#F93" transform="scale(2 2)" d="M193.837 185.718C194.99 184.204 195.937 182.398 196.943 180.775C208.15 162.707 235.294 131.474 254.871 121.535C259.179 120.907 263.668 125.892 266.815 128.273C288.426 144.62 303.61 162.187 317.673 184.927C322.153 180.34 333.357 169.424 338.464 166.734C342.618 164.545 346.889 170.567 349.455 173.088C364.732 188.095 375.613 204.187 385.237 223.2C389.164 221.483 402.442 215.465 406.054 215.455C410.31 215.444 413.871 225.202 415.384 228.253C425.493 248.629 433.419 274.383 432.913 297.314C437.41 296.086 457.18 291.095 460.522 295.6C464.03 300.328 448.06 318.177 444.604 322.667L415.532 360.669C408.814 369.6 405.646 373.582 396.385 380.268C403.305 380.074 422.084 379.352 428.455 380.438C432.732 381.167 437.936 390.744 422.863 390.63L257.603 390.615L102.01 390.614C97.9554 390.614 83.6896 391.929 80.738 389.622C77.4228 387.031 78.3823 381.239 82.6218 380.454C85.9186 379.844 89.9153 380.245 93.2855 380.247L114.475 380.268C108.122 376.315 104.91 371.101 100.43 365.272L61.992 314.787C59.6044 311.678 50.6689 301.783 50.8579 297.977C51.2547 289.984 73.9556 296.268 79.7987 297.314C79.8059 278.439 84.1003 258.785 91.3767 241.429C93.1216 237.267 101.206 218.36 104.305 216.352C108.026 213.938 120.921 222.059 126.374 223.126L126.765 223.2C129.687 218.486 132.107 213.377 134.963 208.594C138.491 202.685 164.109 166.967 171.418 167.125C175.657 167.218 190.24 182.13 193.837 185.718ZM256.14 132.931C249.562 136.924 243.363 142.472 237.686 147.658C189.171 191.979 169.947 250.772 179.927 314.814C180.94 321.316 182.635 327.687 183.712 334.174C191.956 294.021 214.451 255.923 240.565 224.732C244.758 219.724 252.412 205.326 258.832 211.707C286.533 242.711 313.158 283.461 323.803 323.491C325.092 328.34 326.07 333.307 327.486 338.115C328.152 334.541 329.185 331.032 330.036 327.498C342.42 276.04 332.066 223.069 302.053 179.339C292.646 165.633 271.065 141.893 256.14 132.931ZM339.961 179.039C335.712 181.228 326.456 190.025 323.193 193.89C326.489 202.342 330.889 210.324 334.051 218.86C349.084 259.44 348.606 302.162 336.192 343.193C334.463 348.908 332.243 353.486 331.711 359.545C335.021 354.369 340.011 345.74 344.887 342.108C351.544 330.379 379.017 313.504 390.907 309.034C390.879 305.809 391.249 302.606 391.399 299.387C393.023 264.685 382.164 232.956 362.762 204.724C360.159 200.937 344.002 178.914 339.961 179.039ZM171.557 179.039C144.719 203.62 122.865 243.885 121.315 280.175C120.955 288.623 120.673 300.582 121.208 309.034C139.642 316.45 152.639 325.899 166.188 340.364C170.993 345.805 175.117 351.593 179.614 357.264C177.471 347.11 174.278 337.238 172.161 327.058C163.85 287.088 165.569 244.292 182.74 206.775C184.56 202.799 186.638 198.852 188.23 194.78C183.047 189.284 177.8 183.364 171.557 179.039ZM254.871 223.2C217.505 268.661 186.45 319.235 190.003 380.268L256.14 380.268L320.008 380.268C320.115 330.597 308.824 297.788 280.215 255.749C273.217 245.466 263.566 231.979 254.871 223.2ZM403.04 227.124C398.409 228.828 393.644 230.656 389.339 233.081C396.305 251.336 400.433 267.788 401.337 287.345C401.609 293.219 401.069 299.123 401.441 304.971C403.617 304.265 405.545 303.853 407.828 303.619C412.078 300.957 417.759 299.599 422.741 299.316C422.819 280.03 415.117 243.503 403.344 227.195L403.04 227.124ZM108.998 227.124C98.7694 248.865 88.2673 274.711 89.6952 299.316C94.9802 300.659 100.217 302.028 105.435 303.619C107.24 304.121 109.03 304.614 110.87 304.971C110.842 279.334 111.586 256.673 122.722 233.081C118.232 231.034 113.627 228.823 108.998 227.124ZM444.381 305.582C396.591 310.119 356.519 331.771 334.637 374.858C334.213 375.692 331.189 380.121 332.937 380.268L355.655 380.28C385.315 380.277 392.057 374.521 410.48 350.525L429.658 325.515C434.638 318.898 439.488 311.932 444.976 305.733L444.884 305.46L444.381 305.582ZM67.8837 305.582C69.8934 308.948 72.588 312.121 74.9465 315.26L107.421 357.782C110.33 361.55 113.104 366.123 116.713 369.225C129.318 380.06 142.217 380.286 157.62 380.285L179.614 380.268C177.977 374.354 174.781 369.333 171.469 364.234C145.714 324.586 113.01 312.886 67.8837 305.582Z"/>
</svg>
