<?xml version="1.0" encoding="utf-8" ?>
<svg xmlns="http://www.w3.org/2000/svg" xmlns:xlink="http://www.w3.org/1999/xlink" width="1024" height="1024">
	<path fill="#F93" transform="scale(2 2)" d="M251.585 53.397C251.319 47.5382 249.35 38.8174 255.048 35.772C263.92 34.904 261.493 47.854 261.47 53.397C274.389 67.1129 275.27 66.5867 275.26 84.698L275.249 106.002C282.863 105.548 284.071 106.224 284.21 113.472C284.413 123.941 282.135 125.256 278.279 134.464L282.127 161.723C282.766 166.463 283.113 171.526 284.132 176.188C285.955 184.525 294.19 186.379 284.191 198.317C286.962 213.341 287.64 230.677 290.905 244.99C296.957 251.237 297.706 256.99 293.059 264.497C295.752 288.763 299.321 312.943 302.01 337.213C317.05 337.451 314.632 335.627 313.912 356.11C313.748 360.775 312.144 362.748 308.849 365.815C311.566 387.794 315.812 410.216 318.832 432.315L333.673 432.268C345.976 432.174 343.766 433.958 343.754 444.999L343.731 462.513C349.204 462.53 355.097 461.916 360.507 462.513C363.206 464.22 364.929 468.466 362.228 470.967C359.438 473.55 349.7 472.482 346.094 472.483L257.875 472.48L188.638 472.485C176.886 472.485 164.987 472.869 153.249 472.438C146.906 472.205 145.775 466.54 150.537 462.513C156.503 462.356 162.509 462.5 168.48 462.513L168.498 444.333C168.499 432.614 167.287 432.293 180.667 432.296L194.091 432.315C196.596 410.92 200.545 385.328 204.619 364.272C199.249 358.93 198.424 341.651 201.65 338.273C203.353 336.491 209.081 337.184 211.529 337.213L219.437 265.696C211.216 250.855 220.979 251.003 222.903 241.786C225.816 227.837 225.245 212.759 228.658 198.317C218.59 188.896 227.635 183.122 229.052 175.905C229.713 172.54 229.968 169.025 230.374 165.618L232.724 147.081C233.255 142.875 233.614 138.611 234.506 134.464C230.739 127.095 228.681 123.335 228.605 115.197C228.525 106.563 228.942 105.511 237.531 106.002L237.514 86.1689C237.505 69.4934 237.591 65.4901 251.585 53.397ZM256.362 61.6858C248.915 69.0406 247.148 70.7714 247.078 81.5034L247.073 82.3395L256.362 82.3395L265.732 82.3395C265.843 73.3334 263.715 67.0905 256.362 61.6858ZM247.073 92.0471C246.998 96.6972 247.055 101.352 247.073 106.002L265.732 106.002L265.732 92.0471C259.537 92.0401 253.259 91.8159 247.073 92.0471ZM240.229 115.295C236.224 115.711 239.61 121.843 240.229 125.3C250.875 125.298 261.553 125.125 272.196 125.3C273.447 121.841 274.299 119.028 274.264 115.295L240.229 115.295ZM243.834 135.026C242.536 147.13 241.253 161.385 239.085 173.324L269.562 173.324L274.264 173.324C272.456 164.936 269.199 143.19 269.562 135.026L243.834 135.026ZM237.073 182.951C232.352 186.117 233.282 190.247 237.073 193.322L262.291 193.335C266.598 193.337 270.946 193.469 275.249 193.322C279.435 190.251 279.878 186.966 276.441 182.951L252.3 182.95C247.236 182.949 242.133 182.817 237.073 182.951ZM237.073 202.718C236.074 215.703 233.597 228.577 232.65 241.534L276.441 241.534L280.756 241.534C279.06 228.615 277.329 215.582 275.249 202.718L249.85 202.706C245.605 202.704 241.312 202.559 237.073 202.718ZM230.791 250.906C226.734 252.334 223.811 258.259 229.067 260.387C231.122 261.218 275.619 260.728 282.562 260.728C285.016 260.508 286.676 257.472 286.345 255.174C285.387 248.53 268.914 250.901 263.913 250.903L230.791 250.906ZM228.658 270.486C225.365 291.153 222.925 316.372 221.243 337.213L284.789 337.213L293.059 337.213C290.678 329.385 290.38 319.675 289.327 311.43C287.589 297.817 285.386 284.154 284.191 270.486L228.658 270.486ZM213.705 346.914L210.345 346.914C209.987 350.066 209.85 353.159 210.345 356.306C213.177 360.402 218.747 358.788 223.629 358.782L282.234 358.774C288.461 358.776 294.822 359.051 301.033 358.765C302.406 357.835 303.361 356.873 304.239 355.469C304.31 352.623 304.349 349.76 304.239 346.914L223.387 346.918C220.19 346.919 216.889 347.104 213.705 346.914ZM227.469 368.496L227.469 432.315L240.229 432.315L240.229 368.496L227.469 368.496ZM249.916 368.496C249.632 389.753 249.917 411.053 249.916 432.315L262.466 432.315C262.791 430.204 262.499 427.811 262.479 425.666L262.466 368.496L249.916 368.496ZM272.196 368.496L272.196 432.315C276.353 432.326 280.649 432.574 284.789 432.315L284.789 368.496L272.196 368.496ZM294.548 368.496L294.548 432.315L308.849 432.315C308.155 421.291 305.962 410.04 304.284 399.131C302.722 388.978 301.576 378.467 299.131 368.496L294.548 368.496ZM213.705 368.496L206.122 417.349C205.353 422.311 204.258 427.279 204.619 432.315L207.688 432.315L217.759 432.315L217.759 368.496L213.705 368.496ZM178.285 442.3L178.285 462.513L334.049 462.513L334.049 442.3L178.285 442.3Z"/>
	<path fill="#F93" transform="scale(2 2)" d="M251.585 165.475L251.585 149.792L261.47 149.792L261.47 165.475L251.585 165.475Z"/>
	<path fill="#F93" transform="scale(2 2)" d="M251.585 214.104L256.362 214.104L261.47 214.104L261.47 230.158L257.875 230.158L251.585 230.158L251.585 214.104Z"/>
	<path fill="#F93" transform="scale(2 2)" d="M239.085 321.414L239.085 305.885L248.762 305.885L248.762 321.414L239.085 321.414Z"/>
	<path fill="#F93" transform="scale(2 2)" d="M263.284 321.414L263.284 305.885L273.016 305.885L273.016 321.414L263.284 321.414Z"/>
</svg>
