<?xml version="1.0" encoding="utf-8" ?>
<svg xmlns="http://www.w3.org/2000/svg" xmlns:xlink="http://www.w3.org/1999/xlink" width="1024" height="1024">
	<path fill="#F93" transform="scale(2 2)" d="M120.484 128.411C120.517 120.681 117.321 107.229 125.196 104.519C131.882 104.168 130.752 112.495 130.727 116.927L130.692 129.038C145.794 136.454 145.822 144.678 145.79 160.048C151.788 163.043 151.352 167.949 145.79 170.826L145.79 204.485C151.576 206.613 151.727 212.301 145.79 214.724L145.79 249.881C151.248 248.551 162.271 246.965 165.986 252.732C174.41 247.404 183.674 247.014 192.588 252.006L194.52 249.881L194.503 219.682C194.497 203.097 189.914 200.837 204.735 195.365C204.315 192.83 204.19 181.019 205.575 179.347C207.447 177.088 210.822 177.085 212.814 179.187C215.46 181.98 214.486 191.39 214.462 195.365C217.422 195.959 220.366 197.165 222.993 198.636C227.837 196.478 232.225 194.614 234.029 189.085C236.324 194.844 239.357 195.707 244.387 198.636C249.768 195.785 252.946 194.959 255.876 189.085C257.966 194.63 262.169 196.28 267.096 198.636C272.077 196.298 276.023 194.595 278.115 189.085C280.6 195.57 283.823 195.625 289.252 198.636C291.872 197.71 294.357 196.566 296.856 195.365C296.828 191.164 295.709 181.687 299.096 178.707C302.152 176.018 305.308 178.048 307.428 180.715C307.788 185.498 307.434 190.547 307.428 195.365C310.384 197.007 314.726 196.965 317.095 199.405C319.707 202.096 318.444 214.892 318.444 218.55L318.43 248.611C319.493 249.067 320.561 249.486 321.648 249.881C329.581 246.654 337.26 245.654 344.679 251.165C351.02 246.649 358.239 246.252 365.49 249.128L365.493 224.04C365.502 221.168 366.104 217.462 365.49 214.724C361.178 212.324 359.702 206.363 365.49 204.485C365.488 193.05 365.773 181.55 365.49 170.125C361.229 167.852 360.171 161.987 365.49 160.048C366.585 142.034 363.394 139.912 381.45 128.411L381.413 116.647C381.405 112.84 380.52 104.933 386.12 104.556C394.63 103.984 391.725 123.275 391.7 128.411C407.379 136.183 407.808 143.777 407.31 160.048C412.939 162.362 413.578 167.736 407.31 170.125L407.31 173.774L407.31 204.485C414.341 205.36 413.042 213.067 407.31 214.724L407.31 277.279C413.393 277.241 428.815 274.215 425.134 284.067L418.855 300.373C416.156 307.491 415.492 309.733 415.49 317.301L415.529 392.552C415.538 407.103 414.822 405.584 401.366 405.582L127.935 405.578C120.372 405.579 112.785 405.732 105.226 405.618C95.224 405.468 96.6518 400.454 96.6878 392.73L96.7205 318.752C96.7315 304.935 94.6033 303.172 89.4871 289.996C83.6846 275.054 92.8469 278.225 105.091 278.296L105.091 214.724C98.851 211.69 99.6757 207.591 104.751 204.176C105.61 202.039 105.097 175.238 105.091 170.826C99.395 168.187 97.9918 162.439 105.091 160.048C104.977 144.392 104.255 136.267 120.484 128.411ZM386.756 137.774C374.015 144.243 375.977 147.09 375.976 160.048L386.756 160.048L396.812 160.048C396.8 157.481 397.387 147.826 396.977 146.278C396.107 142.986 389.737 138 386.756 137.774ZM125.196 137.774C113.574 143.986 115.317 148.396 115.315 160.048L125.832 160.048L135.77 160.048C135.8 149.091 136.306 142.512 125.196 137.774ZM375.976 170.125C375.983 181.559 376.245 193.059 375.976 204.485L396.812 204.485C396.928 193.036 396.822 181.575 396.812 170.125L382.621 170.096C380.473 170.089 378.094 169.848 375.976 170.125ZM115.315 170.125L115.315 204.485C122.061 204.494 129.054 204.903 135.77 204.485L135.77 170.125L115.315 170.125ZM209.411 204.485C202.203 207.865 204.799 215.994 204.735 222.565L212.125 222.565L216.55 222.565C216.568 217.837 216.83 212.972 216.55 208.259C214.521 206.488 212.122 204.904 209.411 204.485ZM301.392 205.539C298.818 206.245 297.306 207.358 295.572 209.379L295.572 222.565C297.838 222.554 300.11 222.508 302.375 222.565L308.134 222.565C308.141 218.184 308.293 213.754 308.134 209.379C306.195 206.996 304.558 205.455 301.392 205.539ZM232.915 205.539C224.366 207.573 226.895 215.736 226.822 222.565C229.242 222.683 231.612 222.659 234.029 222.565C235.891 222.606 237.763 222.687 239.623 222.565C239.645 218.171 239.714 213.772 239.623 209.379C237.74 207.25 235.87 205.597 232.915 205.539ZM255.876 205.539C247.133 207.291 249.836 215.669 249.771 222.565L257.125 222.565L262.247 222.565C262.285 216.679 264.486 205.942 255.876 205.539ZM278.115 205.539C270.031 208.461 272.505 215.433 272.509 222.565L280.811 222.565L285.182 222.565C285.224 217.021 287.135 204.619 278.115 205.539ZM115.315 214.724L115.315 278.296L135.77 278.296L135.77 214.724L115.315 214.724ZM375.976 214.724L375.976 278.296L396.812 278.296C397.053 271.28 396.813 264.183 396.811 257.157L396.812 214.724L375.976 214.724ZM205.272 232.734C203.765 234.426 204.73 245.724 204.735 248.611C209.932 248.11 213.605 248.805 217.758 252.006C225.662 247.161 235.763 246.736 243.51 252.006C251.371 246.417 260.717 247.565 268.689 252.006C272.872 250.846 276.597 248.228 281.018 247.938C285.94 247.616 292.638 252.143 295.572 251.165C299.768 249.498 303.612 247.978 308.134 247.479L308.134 232.734L216.886 232.72C213.046 232.712 209.104 232.526 205.272 232.734ZM331.454 257.288C328.761 257.964 326.823 259.205 324.823 261.067L324.823 278.296L333.125 278.296C335.242 278.287 337.361 278.254 339.477 278.296L339.477 261.067C337.143 259.114 334.68 257.152 331.454 257.288ZM356.214 257.288C353.463 257.925 351.721 259.16 349.719 261.067L349.719 278.296L359.375 278.296C361.412 278.291 363.453 278.259 365.49 278.296C365.497 272.582 365.728 266.77 365.49 261.067C362.753 258.872 359.841 257.192 356.214 257.288ZM204.735 257.816C194.262 259.649 197.554 269.424 197.511 278.296L206.625 278.296C208.738 278.446 210.782 278.459 212.893 278.296C212.926 271.26 215.763 257.437 204.735 257.816ZM231.125 257.816C219.883 259.387 222.996 269.47 222.993 278.296L231.125 278.296C233.517 278.424 235.859 278.472 238.249 278.296C238.289 271.23 241.021 259.113 231.125 257.816ZM255.876 257.816C245.114 259.547 248.289 269.964 248.248 278.296L257.125 278.296C259.393 278.424 261.606 278.459 263.872 278.296C263.908 271.158 266.6 258.17 255.876 257.816ZM280.811 257.816C270.908 260.752 274.03 270.051 273.962 278.296L282.604 278.296C284.838 278.399 287.02 278.419 289.252 278.296C289.292 271.066 292.204 257.277 280.811 257.816ZM304.831 257.816C296.462 261.5 299.071 270.783 299.034 278.296C302.507 278.371 305.984 278.319 309.457 278.296C311.253 278.348 313.037 278.411 314.832 278.296C314.87 270.322 317.729 255.975 304.831 257.816ZM178.905 257.816C169.203 259.802 172.113 270.2 172.144 278.296L180.875 278.296L187.581 278.296C187.61 268.478 191.009 259.15 178.905 257.816ZM151.921 257.816C149.685 258.752 147.814 259.931 146.475 262.006L146.475 278.296L156.722 278.296L161.648 278.296C161.693 267.576 165.112 259.095 151.921 257.816ZM100.039 288.497C105.144 302.675 106.929 302.665 106.786 317.761L106.762 395.632L135.77 395.632C136.107 391.961 135.794 388.034 135.78 384.337L135.77 288.497L100.039 288.497ZM146.475 288.497C146.224 300.401 146.474 312.365 146.475 324.274L146.475 395.632L165.986 395.632L165.975 370.771C165.968 353.954 166.539 347.469 185.125 342.847C203.27 352.435 201.303 354.284 201.294 373.158L201.278 395.632L215.403 395.632L215.389 363.474C215.387 357.078 214.657 347.379 216.215 341.429C220.374 325.538 242.806 316.612 255.876 306.514L271.291 316.566C292.566 330.147 296.881 332.231 296.874 356.568L296.856 377.002L296.856 395.632L310.735 395.632L310.747 369.991C310.725 351.595 310.183 350.222 329.303 341.224C349.613 351.461 347.023 354.479 346.972 375.079L346.967 395.632L365.49 395.632L365.49 288.497L146.475 288.497ZM375.976 288.497L375.976 395.632L405.275 395.632L405.275 388.625L405.282 330.664C405.282 324.895 404.509 312.644 405.413 307.591C406.415 301.994 410.332 294.247 412.264 288.497L375.976 288.497ZM255.876 319.212C252.61 321.334 249.389 323.535 246.069 325.57C223.929 339.148 225.615 338.791 225.606 362.644C225.602 373.635 225.451 384.643 225.594 395.632L255.876 395.632L286.719 395.632L286.736 362.797C286.737 349.276 288.927 340.352 276.435 331.655C273.748 329.784 257.746 319.13 255.876 319.212ZM329.303 352.727C326.798 353.867 322.356 355.733 321.25 358.473C320.235 360.986 320.803 390.433 320.802 395.632C323.638 395.675 326.466 395.69 329.303 395.632L336.935 395.632L336.948 369.829C336.951 365.852 337.24 361.692 336.935 357.738C334.874 355.747 331.985 353.753 329.303 352.727ZM182.371 354.549C180.151 355.345 177.696 356.433 176.642 358.704C175.259 361.683 175.921 390.061 175.929 395.632L185.125 395.632C187.144 395.626 189.169 395.587 191.187 395.632L191.207 372.016C191.212 365.216 193.109 353.371 182.371 354.549Z"/>
	<path fill="#F93" transform="scale(2 2)" d="M340.529 317.609C336.876 317.955 316.11 317.893 313.586 316.937C308.501 315.009 310.787 308.993 314.832 307.477C318.389 307.295 338.741 307.148 340.722 307.718C346.435 309.363 345.146 315.664 340.529 317.609Z"/>
	<path fill="#F93" transform="scale(2 2)" d="M196.673 317.609C193.697 318.041 190.328 317.632 187.303 317.629C183.101 317.626 164.878 320.299 166.871 311.647C167.295 309.807 168.699 308.478 170.212 307.477C175.964 307.538 191.985 306.773 196.597 308.067C201.567 309.463 201.208 315.605 196.673 317.609Z"/>
</svg>
