<svg width="473" height="653" viewBox="0 0 473 653" fill="none" xmlns="http://www.w3.org/2000/svg">
<path d="M463.951 517.436C494.665 557.306 437.189 612.578 396.749 586.964C399.161 585.774 405.249 586.454 408.231 586.168C434.701 583.632 458.437 560.374 462.811 534.434C463.745 528.89 462.237 522.802 463.951 517.436Z" fill="#41D32C"/>
<path d="M150.116 97.3399C153.52 94.0219 158.748 91.8919 163 89.7699C208.006 67.2919 260.866 67.5259 306.066 89.4679C311.858 92.2779 317.908 95.0859 322.448 99.7699C317.374 98.7399 312.062 95.9479 307.206 94.0719C264.32 77.5159 223.946 87.2259 182.618 104.096C172.936 108.05 163.658 113.184 153.806 116.668L152.936 116.97C150.976 110.572 150.62 103.97 150.116 97.3399Z" fill="#41D32C"/>
<path d="M327.014 149.81C329.994 146.758 330.538 141.982 333.692 139.108C341.128 139.122 337.106 153.398 336.198 157.654C325.288 208.82 273.406 249.014 220.524 237.022C208.356 234.262 195.082 228.606 186.584 219.2C192.938 219.892 199.478 222.94 205.79 224.324C248.284 233.642 294.97 212.294 316.06 174.392C320.444 166.514 323.634 158.144 327.014 149.81Z" fill="#41D32C"/>
<path d="M169.837 576.4C173.955 583.612 178.73 587.822 186.585 590.756C187.915 604.728 217.714 604.138 226.932 604.138L367.525 604.106C367.246 607.376 363.444 643.366 373.671 636.882C377.059 632.68 375.559 610.298 375.533 604.106C378.339 603.98 381.185 604.086 383.995 604.106V652.232H103.507C103.147 633.466 102.559 613.25 103.507 594.54C128.985 594.428 138.761 601.118 152.937 576.4C156.069 576.388 168.139 577.438 169.837 576.4Z" fill="#41D32C"/>
<path d="M186.585 219.2C180.365 215.292 173.599 212.28 167.409 208.272C122.779 179.384 107.179 117.788 126.229 69.3381C161.927 -21.4531 293.741 -23.8579 332.297 66.7001C334.763 72.4941 348.061 107.718 338.211 109.782C336.529 110.134 324.669 101.196 322.449 99.7701C317.909 95.0861 311.859 92.2781 306.067 89.4681C260.867 67.5261 208.007 67.2921 163.001 89.7701C158.749 91.8921 153.521 94.0221 150.117 97.3401C137.173 102.858 124.775 110.296 126.659 124.924C141.509 240.152 292.589 248.756 319.313 145.046C321.073 138.216 320.543 131.208 322.145 124.552C323.013 120.942 327.821 119.762 329.639 123.41C331.837 127.818 328.139 144.61 327.015 149.81C323.635 158.144 320.445 166.514 316.061 174.392C294.971 212.294 248.285 233.642 205.791 224.324C199.479 222.94 192.939 219.892 186.585 219.2ZM126.305 103.298C131.837 99.3381 137.443 95.4581 142.183 90.5401C158.615 27.1421 244.463 -2.5159 298.205 37.5161C301.555 40.0121 304.437 43.0641 308.317 44.7721C251.263 -25.9097 138.603 8.92209 126.305 103.298Z" fill="black"/>
<path d="M142.182 90.54C158.614 27.142 244.462 -2.51597 298.204 37.516C301.555 40.012 304.436 43.064 308.316 44.772C320.852 58.192 328.553 77.318 332.219 95.076C282.465 60.748 214.535 51.814 160.04 80.456C154.128 83.562 148.31 88.096 142.182 90.54Z" fill="#41D32C"/>
<path d="M311.087 276.034C305.993 276.36 270.193 276.932 267.379 275.24C266.171 274.514 261.607 245.054 270.173 244.938C277.071 244.844 274.487 264.214 274.491 268.386C285.76 268.744 297.127 267.824 308.381 268.68C372.723 273.572 427.478 323.678 443.03 385.354C445.624 395.644 446.704 406.322 448.306 416.8L459.659 488.302C461.235 497.968 463.269 507.66 463.951 517.436C462.237 522.802 463.745 528.89 462.811 534.434C458.437 560.374 434.701 583.632 408.23 586.168C405.249 586.454 399.16 585.774 396.749 586.964C389.853 585.962 382.461 586.436 375.533 586.964V604.106C375.559 610.298 377.059 632.68 373.671 636.882C363.444 643.366 367.246 607.376 367.525 604.106L226.932 604.138C217.714 604.138 187.915 604.728 186.585 590.756C178.73 587.822 173.955 583.612 169.837 576.4C169.245 573.62 168.835 570.778 168.353 567.978H142.182C135.048 589.702 112.412 587.048 93.4885 586.964C93.2905 599.972 95.0945 623.486 93.2225 635.426C92.3325 641.112 86.9725 640.54 86.3045 635.462C85.6905 630.802 86.2205 625.296 86.2265 620.548L86.2525 586.964L61.3005 587.112C44.2245 587.162 29.6161 583.01 17.2813 570.602C-2.82829 550.37 -1.5003 528.912 2.2115 503.53L13.8187 421.356C15.2465 410.966 16.3463 400.42 18.3843 390.136C31.0263 326.352 81.1385 275.476 147.118 268.894C160.462 267.562 174.331 268.348 187.745 268.386C187.707 263.676 186.447 250.078 188.691 246.764C190.105 244.678 192.761 244.698 194.215 246.64C196.697 249.952 195.94 271.222 195.488 276.034C181.874 275.678 168.177 275.962 154.557 276.034C154.607 295.686 157.605 315.454 159.783 334.958L162.255 359.258L160.549 359.548L160.141 360.22C165.271 378.014 220.123 374.994 234.687 374.97C256.695 374.936 283.351 375.362 302.105 362.092C305.775 350.02 310.647 290.192 311.087 276.034ZM162.047 382.704C157.929 383.69 143.315 384.856 139.531 383.654C112.077 403.188 103.482 406.568 103.477 437.748L103.465 485.594C103.439 488.984 103.108 492.646 103.507 496.002C115.393 483.186 124.671 460.836 136.043 447.17C149.633 430.838 172.969 438.48 173.841 460.632C172.147 470.55 143.429 511.908 136.441 523.802C141.987 523.308 144.421 524.762 148.831 527.822C150.913 531.064 152.851 534.268 154.557 537.726C159.139 537.908 163.767 537.75 168.353 537.726C177.107 507.4 191.549 505.382 220.835 505.354L247.872 505.374C248.645 507.848 249.085 510.454 249.621 512.99C255.093 514.236 258.527 519.2 261.133 523.802C267.234 524.774 283.479 523.782 290.625 523.784L367.525 523.802L367.495 442.952C367.487 432.098 368.503 417.766 367.525 407.456C365.203 406.756 342.799 384.764 342.151 382.704C337.659 378.29 332.335 376.666 328.993 370.694C322.577 359.232 330.678 326.506 332.294 313.712C333.145 306.978 333.023 298.938 334.939 292.504C323.533 292.024 325.555 307.902 324.575 317.052L320.371 357.964C319.633 365.148 320.509 375.566 314.647 380.916C291.233 402.29 164.165 397.788 162.047 382.704ZM101.863 578.976C71.2945 547.172 85.8005 546.108 86.2985 516.766C86.7545 489.934 86.2625 463.012 86.2605 436.172C86.2585 420.232 81.8465 401.772 94.9705 389.89C102.601 382.98 123.781 371.424 124.359 361.266C124.863 352.41 121.165 325.49 119.883 316.05C119.259 311.45 113.951 295.418 122.954 296.538C126.806 299.3 132.561 351.972 132.021 361.648C130.961 380.65 105.935 385.822 96.6245 399.664C91.0405 407.966 92.9785 495.328 93.4885 510.006C97.8665 506.472 101.585 501.304 103.507 496.002C103.108 492.646 103.439 488.984 103.465 485.594L103.477 437.748C103.482 406.568 112.077 403.188 139.531 383.654C143.315 384.856 157.929 383.69 162.047 382.704C162.469 380.106 162.221 377.558 162.047 374.952C146.377 364.578 150.679 351.26 149.737 333.66C149.045 320.756 147.872 307.884 147.253 294.976C147.129 289.316 147.047 283.692 147.253 278.032C123.655 277.124 89.0785 294.456 71.9785 310.23C35.7829 343.624 28.8263 373.394 22.7179 418.462L11.5477 498.022C10.2251 507.33 8.21271 516.938 7.91411 526.332C6.97771 555.8 30.3275 578.628 59.2305 579.178C73.3025 579.444 87.8005 579.486 101.863 578.976ZM318.835 278.032L313.327 334.14C312.447 342.892 312.359 353.278 310.049 361.726C302.331 389.956 186.907 386.24 162.047 374.952C162.221 377.558 162.469 380.106 162.047 382.704C164.165 397.788 291.233 402.29 314.647 380.916C320.509 375.566 319.633 365.148 320.371 357.964L324.575 317.052C325.555 307.902 323.533 292.024 334.939 292.504C339.077 293.742 341.337 294.836 342.151 299.236C339.487 309.618 339.129 321.052 337.79 331.694C336.402 342.73 329.289 363.64 340.003 371.39C370.841 391.216 375.764 389 375.598 424.968L375.533 578.976C384.503 578.422 393.379 579.234 402.305 578.81C434.725 577.272 458.074 548.278 455.936 516.536C455.336 507.64 453.499 498.646 452.037 489.842L445.548 450.524C442.249 430.536 440.126 408.54 435.6 389.006C422.388 331.996 375.695 289.218 318.835 278.032ZM249.621 512.99C222.305 515.882 176.465 501.948 176.987 544.96C167.273 544.99 156.898 545.734 147.253 544.96C136.176 544.21 131.541 544.652 131.547 556.844C137.883 563.192 177.061 559.588 187.745 560.176L188.095 559.836C189.503 554.534 189.156 548.866 189.096 543.428C197.59 542.814 206.202 543.348 214.719 543.4L326.137 543.436C337.854 543.432 349.604 543.132 361.316 543.428C360.973 539.402 361.238 535.264 361.316 531.224C348.924 531.634 336.379 531.242 323.971 531.238L250.331 531.216C231.483 531.198 210.611 528.166 192.592 535.048C202.216 517.668 241.921 524.364 261.133 523.802C258.527 519.2 255.093 514.236 249.621 512.99ZM186.585 590.756C187.915 604.728 217.714 604.138 226.932 604.138L367.525 604.106V592.77C335.401 593.368 303.152 592.778 271.014 592.774L222.229 592.802C210.715 592.826 197.65 594.6 186.585 590.756ZM103.507 569.868C102.802 558.798 98.9665 550 103.939 539.082C107.991 530.182 150.095 465.272 156.575 459.672C159.213 457.392 162.825 457.846 166.051 458.012C163.667 447.756 151.596 441.678 143.562 450.63C131.801 463.738 103.779 509.328 94.9085 524.542C84.7305 542.004 91.0445 555.71 103.507 569.868ZM187.745 565.42C185.415 568.988 180.723 568.018 176.987 567.978C178.505 580.142 185.153 584.072 196.919 584.706C196.343 581.724 191.755 578.14 190.451 575.014C189.452 572.624 189.359 567.032 187.745 565.42ZM367.525 407.456C365.203 406.756 342.799 384.764 342.151 382.704C353.687 388.888 364.741 393.496 367.525 407.456Z" fill="black"/>
<path d="M361.317 531.224C363.381 531.216 365.463 531.148 367.525 531.224C367.563 535.29 367.643 539.362 367.525 543.428C365.455 543.4 363.387 543.416 361.317 543.428C360.973 539.402 361.239 535.264 361.317 531.224Z" fill="#41D32C"/>
<path d="M131.546 556.844C118.496 548.864 123.664 528.436 139.53 531.224C144.684 535.268 146.258 538.65 147.252 544.96C136.176 544.21 131.54 544.652 131.546 556.844Z" fill="#41D32C"/>
<path d="M103.507 569.868C102.803 558.798 98.9665 550 103.939 539.082C107.991 530.182 150.095 465.272 156.575 459.672C159.213 457.392 162.825 457.846 166.051 458.012C166.097 472.092 121.901 521.332 117.793 538.552C114.357 552.96 123.771 560.974 134.269 567.978C126.663 581.486 113.797 581.37 103.507 569.868Z" fill="#41D32C"/>
<path d="M361.316 543.428C363.386 543.416 365.454 543.4 367.524 543.428V584.706L213.39 584.758C208.056 584.776 202.168 585.34 196.918 584.706C196.342 581.724 191.754 578.14 190.45 575.014C189.452 572.624 189.358 567.032 187.744 565.42C187.484 563.606 187.582 561.998 187.744 560.176L188.094 559.836C189.502 554.534 189.156 548.866 189.096 543.428C197.59 542.814 206.202 543.348 214.718 543.4L326.136 543.436C337.854 543.432 349.604 543.132 361.316 543.428Z" fill="#FF9933"/>
<path d="M342.15 299.236C344.014 301.384 345.94 303.38 347.99 305.35C348.11 311.694 341.902 366.294 340.002 371.39C329.288 363.64 336.402 342.73 337.79 331.694C339.128 321.052 339.486 309.618 342.15 299.236Z" fill="#41D32C"/>
<path d="M139.531 383.654C142.355 371.644 134.377 323.488 134.423 304.756C134.445 295.004 138.357 293.95 147.253 294.976C147.873 307.884 149.045 320.756 149.737 333.66C150.679 351.26 146.377 364.578 162.047 374.952C162.221 377.558 162.469 380.106 162.047 382.704C157.929 383.69 143.315 384.856 139.531 383.654Z" fill="#41D32C"/>
<path d="M162.046 382.704C164.164 397.788 291.232 402.29 314.646 380.916C320.508 375.566 319.632 365.148 320.37 357.964L324.574 317.052C325.554 307.902 323.532 292.024 334.938 292.504C333.022 298.938 333.144 306.978 332.294 313.712C330.678 326.506 322.576 359.232 328.992 370.694C332.334 376.666 337.658 378.29 342.15 382.704C342.798 384.764 365.202 406.756 367.524 407.456C368.502 417.766 367.487 432.098 367.495 442.952L367.524 523.802L290.624 523.784C283.478 523.782 267.234 524.774 261.132 523.802C258.526 519.2 255.092 514.236 249.62 512.99C249.084 510.454 248.644 507.848 247.872 505.374L220.834 505.354C191.548 505.382 177.106 507.4 168.352 537.726C163.766 537.75 159.138 537.908 154.556 537.726C152.85 534.268 150.912 531.064 148.83 527.822C144.42 524.762 141.986 523.308 136.44 523.802C143.428 511.908 172.146 470.55 173.84 460.632C172.968 438.48 149.632 430.838 136.042 447.17C124.67 460.836 115.392 483.186 103.506 496.002C103.108 492.646 103.438 488.984 103.464 485.594L103.476 437.748C103.482 406.568 112.076 403.188 139.53 383.654C143.314 384.856 157.928 383.69 162.046 382.704ZM173.84 460.632C172.146 470.55 143.428 511.908 136.44 523.802C141.986 523.308 144.42 524.762 148.83 527.822C155.974 515.594 166.716 502.688 174.838 490.572C184.798 475.714 189.832 467.046 173.84 454.33C173.974 456.452 173.944 458.51 173.84 460.632Z" fill="#41D32C"/>
</svg>
