<svg width="612" height="569" viewBox="0 0 612 569" fill="none" xmlns="http://www.w3.org/2000/svg">
<path d="M309.468 568.257C176.352 571.147 19.5922 489.437 1.73616 346.115C-1.71784 318.391 1.19816 290.159 0.34616 262.281C-1.74584 193.773 16.5962 141.991 66.5082 92.4669C128.292 31.1669 217.38 -0.00314781 303.592 0.298852C306.288 0.00885218 309.054 -0.01714 311.762 0.00686C443.704 1.23686 596.156 82.4589 610.512 225.619C611.844 238.903 611.194 251.989 611.184 265.299L611.198 321.397C609.904 476.815 451.626 569.485 309.468 568.257ZM286.818 20.7769C271.956 21.9709 257.09 23.3329 242.41 26.0069C128.504 46.7529 10.4322 133.667 21.0262 261.107C30.9062 379.973 156.186 452.267 264.206 464.157C284.702 466.413 304.806 466.471 325.378 466.437C418.068 456.059 506.466 427.615 560.662 344.325C619.202 254.361 588.462 150.365 507.026 86.2808C438.474 32.3368 369.902 20.6269 286.818 20.7769ZM20.4942 334.145C23.9642 360.239 30.5742 386.939 44.3682 409.673L45.0102 409.507C45.0762 408.639 45.1322 407.783 45.1562 406.911C45.1062 396.381 44.4482 386.831 49.3142 377.165C44.2102 371.081 21.2182 334.593 20.4942 334.145ZM590.968 336.163C580.49 350.923 574.508 362.441 562.308 377.165C570.306 382.713 568.248 394.393 568.23 402.911C568.21 405.579 568.104 408.275 568.23 410.937C579.286 384.603 586.422 364.419 590.968 336.163ZM546.868 394.513L546.26 394.967C540.814 399.097 536.158 404.239 531.02 408.737C411.58 513.301 211.836 512.187 88.2042 415.109C80.0822 408.731 72.9642 401.363 65.2702 394.513C65.3262 405.067 68.8462 425.413 60.9382 433.449L60.0202 434.365C62.6102 439.045 65.7762 443.235 69.0902 447.421C131.58 513.955 204.066 544.027 296.652 546.947C378.448 549.527 461.834 525.079 522.276 468.261C531.31 459.769 541.374 449.899 548.126 439.477C548.196 432.529 548.42 397.515 546.868 394.513Z" fill="#FF9933"/>
<path d="M118.468 266.393C142.174 370.831 277.636 404.559 369.834 384.245C513.708 352.547 569.928 206.735 437.206 123.809C382.854 89.849 310.812 82.815 248.782 96.787C242.9 98.111 227.236 104.549 221.88 100.741C217.336 97.509 215.904 89.757 219.492 85.331C226.508 76.669 284.098 70.749 295.306 69.761C347.996 68.255 401.052 78.017 446.716 105.273C520.668 149.413 559.792 235.171 512.44 313.585C426.52 455.869 140.118 441.733 98.6323 270.933C96.5023 262.161 91.1563 244.907 104.074 242.169C117.976 239.223 116.822 257.597 118.468 266.393Z" fill="#FF9933"/>
<path d="M174.29 129.343C166.82 129.667 159.264 122.991 163.2 115.125C166.702 108.131 181.712 100.377 188.868 97.8309C196.6 97.3929 203.292 104.013 199.756 111.649C197.086 117.411 180.568 127.107 174.29 129.343Z" fill="#FF9933"/>
<path d="M492.774 487.737C489.244 486.665 483.888 484.391 482.926 480.481C480.136 469.145 478.496 450.501 492.774 447.421C505.444 448.457 509.854 481.541 492.774 487.737Z" fill="#FF9933"/>
<path d="M122.652 483.887C102.574 483.689 107.298 451.029 120.432 447.421L120.664 447.497C136.93 452.685 135.884 480.227 122.652 483.887Z" fill="#FF9933"/>
<path d="M185.414 513.884C181.998 504.474 179.434 482.264 192.212 479.83C208.342 478.34 205.206 508.664 202.24 513.704C200.78 516.188 197.388 517.078 194.818 517.794C190.61 517.812 188.474 516.76 185.414 513.884Z" fill="#FF9933"/>
<path d="M420.752 517.794C406.554 518.018 401.248 485.84 417.822 479.83C431.95 479.702 438.024 512.354 420.752 517.794Z" fill="#FF9933"/>
<path d="M269.706 533.885C265.948 533.825 261.076 532.377 259.576 528.543C256.418 520.471 253.99 497.675 267.23 494.415C280.98 494.601 286.062 528.803 269.706 533.885Z" fill="#FF9933"/>
<path d="M333.144 527.903C332.088 517.595 329.816 501.895 341.084 496.889C360.706 495.781 359.484 528.077 346.404 533.885C340.606 534.115 337.006 532.423 333.144 527.903Z" fill="#FF9933"/>
<path d="M215.5 249.287C215.434 251.754 214.9 254.354 213.9 257.087C212.9 259.754 211.4 262.32 209.4 264.787C207.4 267.187 204.867 269.254 201.8 270.987C198.8 272.72 195.3 273.887 191.3 274.487C190.7 274.554 189.934 275.02 189 275.887C188.067 276.754 187.6 277.72 187.6 278.787C187.534 279.787 187.267 280.454 186.8 280.787C186.4 281.187 185.934 281.52 185.4 281.787C184.934 281.987 184.267 282.054 183.4 281.987C182.6 281.987 181.834 281.887 181.1 281.687C180.434 281.42 179.967 280.787 179.7 279.787C179.434 278.854 179.267 278.154 179.2 277.687C179.2 277.154 178.834 276.454 178.1 275.587C177.434 274.72 176.334 274.154 174.8 273.887C171.734 273.287 168.834 272.42 166.1 271.287C163.367 270.154 160.934 268.72 158.8 266.987C158.2 266.454 157.5 265.487 156.7 264.087C155.967 262.687 155.434 261.12 155.1 259.387C154.834 257.587 155 255.82 155.6 254.087C156.267 252.354 157.667 250.887 159.8 249.687C162 248.42 165.2 247.687 169.4 247.487C168.6 249.754 169.9 251.887 173.3 253.887C174.3 254.487 175.267 254.72 176.2 254.587C177.2 254.387 177.9 253.92 178.3 253.187C178.7 252.52 179.034 251.554 179.3 250.287C179.567 248.954 179.7 247.554 179.7 246.087C179.767 244.554 179.667 243.254 179.4 242.187C179.2 241.254 178.534 240.387 177.4 239.587C176.334 238.72 175.334 238.154 174.4 237.887C167.334 235.687 162.2 232.887 159 229.487C155.867 226.087 154.2 222.454 154 218.587C153.8 214.254 154.667 210.454 156.6 207.187C158.534 203.854 161.167 201.087 164.5 198.887C167.9 196.687 171.667 195.187 175.8 194.387C176.2 194.254 176.8 193.887 177.6 193.287C178.467 192.687 179.034 191.754 179.3 190.487C179.434 189.754 179.534 189.154 179.6 188.687C179.667 188.154 179.7 187.454 179.7 186.587C179.7 186.12 180.2 185.72 181.2 185.387C181.867 185.187 182.6 185.087 183.4 185.087C184.267 185.087 185.034 185.154 185.7 185.287C186.634 185.62 187.1 186.054 187.1 186.587C187.1 187.654 187.134 188.354 187.2 188.687C187.267 188.954 187.4 189.454 187.6 190.187C187.734 190.854 188.134 191.587 188.8 192.387C189.467 193.12 190.2 193.554 191 193.687C194.267 194.287 197.3 195.287 200.1 196.687C202.967 198.087 205.334 199.787 207.2 201.787C209.134 203.72 210.3 205.787 210.7 207.987C210.9 209.054 210.5 209.987 209.5 210.787C208.567 211.52 207.3 212.154 205.7 212.687C204.167 213.22 202.6 213.62 201 213.887C199.4 214.154 198.034 214.287 196.9 214.287C195.834 214.287 195.267 214.154 195.2 213.887C195.067 213.154 194.667 212.42 194 211.687C193.334 210.954 192.467 210.354 191.4 209.887C190.8 209.62 190.1 209.654 189.3 209.987C188.567 210.32 188.067 211.154 187.8 212.487C187.734 212.82 187.634 213.554 187.5 214.687C187.367 215.754 187.267 216.954 187.2 218.287C187.2 219.62 187.3 220.854 187.5 221.987C187.767 223.12 188.367 224.12 189.3 224.987C190.234 225.854 191.034 226.387 191.7 226.587C196.5 227.854 200.7 229.354 204.3 231.087C207.9 232.82 210.7 235.12 212.7 237.987C214.7 240.787 215.634 244.554 215.5 249.287ZM173.1 214.687C172.9 215.82 172.867 216.754 173 217.487C173.2 218.154 174 219.02 175.4 220.087C175.867 220.487 176.534 220.654 177.4 220.587C178.334 220.52 178.934 219.987 179.2 218.987C179.534 217.454 179.634 215.92 179.5 214.387C179.434 212.854 179.267 211.72 179 210.987C178.667 210.054 178.034 209.687 177.1 209.887C176.234 210.087 175.4 210.654 174.6 211.587C173.8 212.454 173.3 213.487 173.1 214.687ZM196.5 250.887C196.9 249.42 196.734 248.12 196 246.987C195.267 245.854 194.367 244.954 193.3 244.287C192.234 243.62 191.4 243.22 190.8 243.087C189.934 242.887 189.2 243.12 188.6 243.787C188.067 244.454 187.667 245.154 187.4 245.887C187.2 246.487 187.067 247.62 187 249.287C187 250.887 187.2 252.487 187.6 254.087C187.8 254.954 188.434 255.62 189.5 256.087C190.634 256.487 191.534 256.52 192.2 256.187C193.267 255.654 194.167 255.054 194.9 254.387C195.634 253.654 196.167 252.487 196.5 250.887ZM278.631 241.587C278.365 241.654 277.965 242.02 277.431 242.687C276.965 243.354 276.631 244.054 276.431 244.787C276.098 245.854 276.198 246.72 276.731 247.387C278.131 249.054 279.931 251.02 282.131 253.287C284.331 255.487 286.531 257.587 288.731 259.587C290.998 261.587 292.931 263.12 294.532 264.187C293.331 267.387 291.431 269.954 288.831 271.887C286.298 273.754 283.465 274.654 280.331 274.587C277.198 274.52 274.131 273.12 271.131 270.387C270.731 269.987 269.965 269.12 268.831 267.787C267.698 266.387 266.398 264.754 264.931 262.887C263.465 261.02 261.998 259.154 260.531 257.287C259.065 255.42 257.798 253.787 256.731 252.387C255.665 250.987 254.998 250.12 254.731 249.787C253.465 248.12 252.265 247.754 251.131 248.687C249.998 249.62 249.298 251.554 249.031 254.487C248.898 256.22 248.898 258.22 249.031 260.487C249.231 262.687 249.498 264.654 249.831 266.387C250.231 268.12 250.631 269.154 251.031 269.487C249.631 270.554 247.898 271.554 245.831 272.487C243.765 273.42 241.398 273.987 238.731 274.187C237.731 274.254 236.565 273.987 235.231 273.387C233.898 272.787 232.731 271.82 231.731 270.487C230.798 269.087 230.298 267.354 230.231 265.287C230.231 264.754 230.198 263.354 230.131 261.087C230.131 258.82 230.098 256.054 230.031 252.787C230.031 249.454 230.031 246.02 230.031 242.487C230.031 238.954 229.998 235.62 229.931 232.487C229.931 229.354 229.931 226.82 229.931 224.887C229.931 222.954 229.931 221.987 229.931 221.987C229.931 218.054 229.831 214.787 229.631 212.187C229.431 209.52 228.631 207.487 227.231 206.087C225.965 204.82 224.998 202.987 224.331 200.587C223.731 198.187 223.465 195.92 223.531 193.787C223.798 193.854 224.598 193.954 225.931 194.087C227.265 194.154 228.565 194.254 229.831 194.387C230.698 194.387 231.931 194.387 233.531 194.387C235.198 194.32 236.965 194.254 238.831 194.187C240.698 194.12 242.431 194.087 244.031 194.087C245.631 194.02 246.831 193.954 247.631 193.887C248.231 193.887 249.331 193.887 250.931 193.887C252.598 193.82 254.531 193.787 256.731 193.787C258.931 193.787 261.165 193.82 263.431 193.887C265.698 193.887 267.798 193.954 269.731 194.087C271.665 194.22 273.165 194.387 274.231 194.587C278.631 195.387 282.031 196.854 284.431 198.987C286.831 201.12 288.531 203.687 289.531 206.687C290.598 209.687 291.231 212.954 291.431 216.487C291.565 219.487 291.231 222.62 290.431 225.887C289.631 229.154 288.265 232.187 286.331 234.987C284.398 237.787 281.831 239.987 278.631 241.587ZM249.231 220.087C249.231 222.22 249.731 223.82 250.731 224.887C251.731 225.887 252.665 226.487 253.531 226.687C254.731 226.954 256.265 226.987 258.131 226.787C259.998 226.52 261.865 226.054 263.731 225.387C265.598 224.654 267.165 223.72 268.431 222.587C269.765 221.454 270.431 220.154 270.431 218.687C270.431 216.754 269.631 215.287 268.031 214.287C266.431 213.22 264.398 212.554 261.931 212.287C259.531 212.02 257.131 212.087 254.731 212.487C252.865 212.754 251.465 213.587 250.531 214.987C249.598 216.387 249.165 218.087 249.231 220.087ZM375.731 230.387C376.398 236.587 376.098 242.087 374.831 246.887C373.631 251.687 371.731 255.854 369.131 259.387C366.598 262.854 363.598 265.72 360.131 267.987C356.665 270.187 352.965 271.854 349.031 272.987C345.165 274.054 341.331 274.587 337.531 274.587C333.731 274.587 329.865 274.087 325.931 273.087C321.998 272.087 318.265 270.52 314.731 268.387C311.265 266.254 308.198 263.487 305.531 260.087C302.931 256.687 300.998 252.654 299.731 247.987C298.465 243.254 298.165 237.787 298.831 231.587C299.365 226.254 300.698 221.287 302.831 216.687C304.965 212.02 307.731 207.987 311.131 204.587C314.531 201.12 318.431 198.454 322.831 196.587C327.231 194.654 331.931 193.754 336.931 193.887C337.265 193.887 337.765 193.654 338.431 193.187C339.098 192.654 339.998 192.154 341.131 191.687C342.265 191.22 343.631 191.054 345.231 191.187C348.231 191.454 351.398 192.687 354.731 194.887C358.065 197.087 361.231 200.02 364.231 203.687C367.231 207.287 369.765 211.387 371.832 215.987C373.898 220.587 375.198 225.387 375.731 230.387ZM337.831 256.087C340.165 256.02 342.365 255.687 344.431 255.087C346.565 254.487 348.465 253.387 350.131 251.787C351.798 250.187 353.131 247.92 354.131 244.987C355.198 242.054 355.765 238.287 355.831 233.687C355.898 230.487 355.198 227.387 353.731 224.387C352.265 221.387 350.231 218.854 347.631 216.787C345.031 214.654 342.065 213.42 338.731 213.087C335.131 212.687 332.065 213.054 329.531 214.187C326.998 215.254 324.898 216.854 323.231 218.987C321.631 221.054 320.398 223.387 319.531 225.987C318.665 228.587 318.131 231.22 317.931 233.887C317.531 238.487 317.965 242.254 319.231 245.187C320.498 248.12 322.198 250.387 324.331 251.987C326.465 253.587 328.731 254.687 331.131 255.287C333.598 255.887 335.831 256.154 337.831 256.087ZM424.178 254.287C426.512 254.754 428.812 255.087 431.078 255.287C433.345 255.42 435.312 255.454 436.978 255.387C438.712 255.254 439.945 255.087 440.678 254.887C440.945 256.02 441.012 257.454 440.878 259.187C440.745 260.854 440.378 262.587 439.778 264.387C439.245 266.12 438.412 267.687 437.278 269.087C436.145 270.487 434.678 271.454 432.878 271.987C431.745 272.32 429.978 272.654 427.578 272.987C425.178 273.254 422.412 273.487 419.278 273.687C416.212 273.887 413.012 273.987 409.678 273.987C406.412 274.054 403.278 273.987 400.278 273.787C397.278 273.654 394.645 273.387 392.378 272.987C390.178 272.52 388.612 271.954 387.678 271.287C385.878 269.82 384.878 268.02 384.678 265.887C384.545 263.687 384.912 261.454 385.778 259.187C386.712 256.92 387.845 255.02 389.178 253.487C389.978 252.554 391.178 251.02 392.778 248.887C394.378 246.754 396.112 244.387 397.978 241.787C399.912 239.12 401.778 236.52 403.578 233.987C405.378 231.387 406.912 229.187 408.178 227.387C409.445 225.52 410.212 224.354 410.478 223.887C411.145 222.687 411.512 221.52 411.578 220.387C411.712 219.187 411.612 218.154 411.278 217.287C410.878 216.154 410.178 215.22 409.178 214.487C408.245 213.687 406.812 213.154 404.878 212.887C403.878 212.754 402.612 212.62 401.078 212.487C399.545 212.287 397.912 212.054 396.178 211.787C394.512 211.454 392.978 211.054 391.578 210.587C390.245 210.12 389.245 209.554 388.578 208.887C387.712 208.02 386.912 206.754 386.178 205.087C385.512 203.354 384.978 201.52 384.578 199.587C384.245 197.587 384.078 195.82 384.078 194.287C384.412 194.42 385.578 194.554 387.578 194.687C389.645 194.82 392.145 194.954 395.078 195.087C398.078 195.22 401.178 195.354 404.378 195.487C407.645 195.554 410.712 195.62 413.578 195.687C416.512 195.754 418.878 195.787 420.678 195.787C425.478 195.854 429.745 195.754 433.478 195.487C437.212 195.154 439.878 194.787 441.478 194.387C442.412 196.12 442.878 198.087 442.878 200.287C442.945 202.42 442.645 204.587 441.978 206.787C441.378 208.92 440.545 210.887 439.478 212.687C439.212 213.154 438.578 214.154 437.578 215.687C436.578 217.154 435.345 218.954 433.878 221.087C432.478 223.22 430.978 225.454 429.378 227.787C427.778 230.054 426.278 232.22 424.878 234.287C423.478 236.354 422.278 238.087 421.278 239.487C420.345 240.887 419.778 241.754 419.578 242.087C417.445 245.354 416.812 248.02 417.678 250.087C418.545 252.087 420.712 253.487 424.178 254.287ZM459.675 274.187C456.809 273.654 454.775 271.72 453.575 268.387C452.442 265.054 451.875 260.92 451.875 255.987C451.875 255.387 451.842 253.887 451.775 251.487C451.775 249.087 451.742 246.12 451.675 242.587C451.675 238.987 451.642 235.12 451.575 230.987C451.575 226.854 451.542 222.72 451.475 218.587C451.409 214.454 451.342 210.654 451.275 207.187C451.209 203.654 451.142 200.754 451.075 198.487C451.009 196.22 450.942 194.854 450.875 194.387C451.875 194.187 453.409 194.154 455.475 194.287C457.609 194.354 459.809 194.687 462.075 195.287C464.409 195.82 466.442 196.754 468.175 198.087C469.909 199.354 470.909 201.12 471.175 203.387C471.309 204.454 471.409 206.287 471.475 208.887C471.542 211.42 471.575 214.454 471.575 217.987C471.642 221.454 471.675 225.154 471.675 229.087C471.675 233.02 471.675 236.92 471.675 240.787C471.675 244.587 471.675 248.12 471.675 251.387C471.675 254.587 471.675 257.287 471.675 259.487C471.742 261.62 471.809 262.92 471.875 263.387C472.009 264.787 472.275 265.82 472.675 266.487C473.075 267.087 473.509 267.854 473.975 268.787C472.309 270.587 470.242 272.054 467.775 273.187C465.309 274.32 462.609 274.654 459.675 274.187Z" fill="#FF9933"/>
</svg>
