<svg width="711" height="697" viewBox="0 0 711 697" fill="none" xmlns="http://www.w3.org/2000/svg">
<path d="M469.222 183.354C473.678 183.194 474.706 184.346 475.882 188.63C483.012 214.642 487.726 241.33 494.318 267.5C495.594 272.57 499.96 279.56 495.344 283.752C486.068 286.458 480.808 243.818 478.718 235.294L471.32 204.878C470.002 199.316 465.356 188.438 469.222 183.354Z" fill="#010000"/>
<path d="M20.7868 594.37C7.88278 580.1 32.0386 569.57 41.9048 563.302C63.166 549.794 83.586 534.794 99.894 515.434C103.53 511.116 106.81 505.546 112.108 503.124C113.218 504.764 114.918 506.104 115.166 508.13C109.57 524.848 65.952 556.894 51.574 566.516C44.9332 570.962 37.0034 574.698 30.8392 579.646C25.8746 583.632 25.0674 590.546 21.4814 594.12L20.7868 594.37Z" fill="#010000"/>
<path d="M480.1 598.33C518.678 584.686 557.296 555.166 581.872 522.678C589.524 512.562 591.886 495.528 602.432 503.124C589.182 537.482 555.86 565.864 525.732 585.312C514.56 592.522 502.324 598.22 491.422 605.748C496.012 611.686 499.906 618.18 503.962 624.488L522.482 653.4C529.976 665.1 543.784 681.228 547.19 694.362C544.95 696.042 543.062 696.676 540.27 696.828L539.16 696.276C529.878 694.538 526.548 688.968 520.34 682.89L519.67 682.242C518.002 680.956 516.118 677.434 515.224 675.498C511.728 661.628 464.586 608.344 480.1 598.33Z" fill="#010000"/>
<path d="M515.224 675.498C511.728 661.628 464.586 608.344 480.1 598.33C481.488 609.692 489.98 619.3 496.042 628.578L522.11 669.11C527.854 677.952 534.658 686.75 539.16 696.276C529.878 694.538 526.548 688.968 520.34 682.89L519.67 682.242C518.002 680.956 516.118 677.434 515.224 675.498Z" fill="#138808"/>
<path d="M129.258 485.53C140.932 474.018 156.238 440.256 157.68 424.028C158.584 413.838 155.294 400.948 153.606 390.746L147.38 352.02C146.082 343.44 129.812 238.69 130.516 236.096C133.838 223.85 146.224 219.014 157.774 222.692C193.116 233.95 195.394 282.502 209.918 310.64C212.536 316.37 215.444 322.584 219.808 327.226C222.462 330.048 237.936 338.31 233.83 342.944C230.35 346.874 223.346 341.196 220.568 338.952C190.564 314.706 192.788 261.126 169 239.004C156.742 239.492 152.412 237.064 154.01 251.336C158.176 288.584 163.278 328.45 168.514 365.44C178.14 433.452 189.442 432.144 150.73 494.406C147.858 498.456 144.852 502.306 141.604 506.06C161.524 536.472 192.03 567.156 227.492 578.076C227.658 593.118 205.276 577.812 199.64 574.45C170.81 557.25 154.26 538.204 134.904 511.08C113.05 480.458 119.018 476.338 92.794 505.202C75.044 524.74 55.696 539.596 33.5462 553.916C11.8548 567.94 9.87421 562.462 9.78001 587.512C7.22281 593.29 2.04661 586.576 1.36641 582.896C-1.99519 564.702 16.0228 556.194 28.572 547.956C52.14 532.484 66.864 522.188 86.568 501.264C101.138 485.794 107.392 468.562 129.258 485.53ZM133.656 494.406C136.08 498.484 138.706 502.306 141.604 506.06C144.852 502.306 147.858 498.456 150.73 494.406C189.442 432.144 178.14 433.452 168.514 365.44C163.278 328.45 158.176 288.584 154.01 251.336C152.412 237.064 156.742 239.492 169 239.004C160.196 229.51 137.5 222.144 138.344 242.736C138.72 251.926 143.458 267.91 145.092 277.994C151.048 314.784 155.448 351.794 161.504 388.596C169.158 435.1 163.66 453.718 133.656 494.406Z" fill="#010000"/>
<path d="M499.726 310.64C510.07 284.54 518.322 234.852 542.392 224.39C555.174 218.834 570.014 223.236 575.166 236.728C580.2 249.91 572.892 263.936 570.446 276.994C564.818 307.062 564.296 337.984 558.638 368.156C549.316 417.864 541.298 442.162 580.104 485.53C605.898 467.376 610.334 482.418 627.588 500.476C642.25 515.818 659.564 529.358 677.756 540.342C688.866 547.05 724.146 567.636 705.74 584.812L704.664 584.988C702.892 582.49 703.774 578.228 703.03 575.202C699.17 559.504 677.362 550.18 665.204 542.384C648.09 531.408 632.004 518.404 618.71 502.958C613.02 496.35 608.066 487.706 599.112 485.53C582.208 489.508 578.858 508.122 568.526 520.56C559.55 531.362 491.35 593.358 480.1 583.96C477.806 578.006 484.428 576.284 488.578 573.818C520.076 555.088 546.184 534.848 569.142 506.06C532.332 460.188 523.24 434.396 535.472 379.638C544.594 338.798 541.146 291.586 550.502 255.26C552.656 246.898 558.996 240.584 562.064 232.636C551.078 224.936 539.57 234.15 533.168 243.546C513.604 272.264 516.812 314.34 488.866 338.392C484.902 341.804 475.15 350.514 472.782 340.972C474.114 336.672 481.052 334.194 484.454 331.298C490.626 326.042 495.782 317.704 499.726 310.64ZM562.064 232.636C558.996 240.584 552.656 246.898 550.502 255.26C541.146 291.586 544.594 338.798 535.472 379.638C523.24 434.396 532.332 460.188 569.142 506.06L575.966 494.406C572.186 488.73 567.744 483.502 563.854 477.892C529.254 428.008 544.756 405.068 552.934 352.554C556.644 328.726 557.928 304.79 561.198 280.964C563.452 264.546 575.52 246.796 562.064 232.636Z" fill="#010000"/>
<path d="M602.432 503.124C609.054 507.618 613.676 515.212 619.03 521.126C632.402 535.9 646.786 549.732 664.07 559.83C675.464 566.488 700.162 580.606 687.972 597.544C682.088 605.72 672.276 604.69 663.47 606.19C630.658 611.774 570.192 631.654 560.99 669.206C557.91 681.77 561.738 687.898 547.19 694.362C543.784 681.228 529.976 665.1 522.482 653.4L503.962 624.488C499.906 618.18 496.012 611.686 491.422 605.748C502.324 598.22 514.56 592.522 525.732 585.312C555.86 565.864 589.182 537.482 602.432 503.124Z" fill="#138808"/>
<path d="M112.108 503.124C123.142 502.384 128.648 517.802 135.202 526.3C153.972 550.636 177.776 574.094 206.064 587.134C220.374 593.73 235.842 596.234 226.284 614.908C216.428 634.16 201.142 654.676 189.852 674.176C186.116 680.63 180.486 696.348 171.416 695.802C160.096 695.122 155.17 673.938 150.002 666.236C125.602 629.874 84.086 606.516 40.2406 605.748C32.3514 605.61 16.3178 607.584 20.7868 594.37L21.4814 594.12C25.0674 590.546 25.8746 583.632 30.8392 579.646C37.0034 574.698 44.9332 570.962 51.574 566.516C65.952 556.894 109.57 524.848 115.166 508.13C114.918 506.104 113.218 504.764 112.108 503.124Z" fill="#138808"/>
<path d="M349.07 20.6314C352.976 5.74802 367.562 -4.20357 382.68 3.62643C396.538 10.803 407.478 34.7946 412.048 49.304C432.04 52.266 439.39 73.584 445.872 90.004C449.31 98.716 472.82 160.208 468.714 167.63C463.664 170.482 462.082 166.808 460.886 162.294C454.134 136.804 446.774 114.17 436.87 89.812C431.274 76.052 427.096 60.164 410.29 57.404C404.66 58.128 401.778 59.39 399.466 64.906C389.594 82.398 408.91 136.144 413.698 154.5C423.068 190.418 434.49 236.89 440.218 273.502C437.946 274.888 436.092 274.896 433.498 274.906C419.248 284.57 419.284 268.792 416.286 255.468C406.686 212.8 398.66 169.608 386.24 127.656C381.818 112.712 373.668 70.192 353.396 71.794C352.652 73.274 352.094 74.658 351.618 76.246C349.81 98.02 355.322 120.298 354.498 142.264C375.374 154.398 382.256 230.966 385.386 253.434C386.88 264.164 389.1 275.26 389.832 286.042C384.46 290.546 381.77 285.972 381.152 280.9C378.084 255.772 374.154 230.636 369.604 205.736C366.924 191.066 363.896 156.076 349.07 148.556C339.7 173.32 342.514 202.026 344.376 227.87L352.32 330.098C358.08 408.352 369.53 480.416 425.11 540.592C429.822 545.694 446.446 560.666 448.792 565.43C455.21 571.472 467.47 576.672 470.96 584.794C455.196 600.762 470.744 615.452 481.308 628.74C492.108 642.326 504.812 664.304 515.224 675.498C516.118 677.434 518.002 680.956 519.67 682.242C522.35 687.036 523.966 694.952 516 692.192C502.762 676.23 491.048 655.384 477.866 638.064C462.674 618.104 450.558 610.616 460.766 584.794C413.298 546.498 371.31 516.95 351.618 453.344C339.896 495.88 302.726 537.748 271.1 566.634C264.258 572.884 257.218 580.41 248.992 584.794C260.424 607.466 247.92 617.574 236.304 635.666L212.598 672.306C209.376 677.268 202.238 692.876 195.576 693.472C187.048 689.82 204.386 670.662 207.18 666.354C214.746 654.682 221.956 642.754 229.626 631.108C236.226 621.086 253.256 602.742 241.926 590.248C240.998 589.224 237.278 586.238 237.798 584.556C237.866 584.34 263.126 562.762 265.852 560.276C292.878 535.616 317.61 507.896 334.358 475.116C347.964 448.486 350.212 445.146 341.84 419.058C341.282 411.554 339.736 404.002 338.64 396.548C330.13 338.688 326.778 279.462 323.824 221.12L322.02 186.486C321.002 163.94 319.578 145.978 345.244 139.736L345.196 107.16C345.122 99.698 344.624 92.376 345.244 84.918C343.902 80.384 344.396 76.346 345.244 71.794C341.772 66.596 335.41 67.594 330.814 70.814C311.14 84.59 295.472 167.462 291.63 192.816L284.346 240.424C283.442 246.722 282.288 274.66 275.998 276.682C273.882 275.928 272.982 275.556 271.884 273.502C272.09 260.87 275.684 246.796 277.596 234.158C281.602 207.674 284.67 181.106 290.474 154.916C295.88 130.518 306.518 100.934 304.54 76.246C304.346 73.842 303.714 71.612 302.858 69.37C300.632 63.628 297.472 58.61 290.648 58.13C259.954 55.968 239.012 177.788 234.702 198.88L223.886 251.234C222.748 256.858 219.586 279.626 215.664 282.406C204.43 290.372 213.924 260.754 214.042 260.156L230.646 178.926C237.994 143.952 248.98 58.306 290.712 49.304C299.778 18.673 321.632 -13.7496 349.07 20.6314ZM448.792 565.43C446.446 560.666 429.822 545.694 425.11 540.592C369.53 480.416 358.08 408.352 352.32 330.098L344.376 227.87C342.514 202.026 339.7 173.32 349.07 148.556C320.026 147.48 330.612 192.484 331.32 211.522C332.712 249.038 335.564 286.394 338.812 323.788C345.4 399.664 350.43 468.668 404.952 526.92C416.412 539.164 434.676 556.68 448.792 565.43ZM353.396 71.794C373.668 70.192 381.818 112.712 386.24 127.656C398.66 169.608 406.686 212.8 416.286 255.468C419.284 268.792 419.248 284.57 433.498 274.906C429.452 265.63 428.408 254.798 426.33 244.942L416.318 199.144C409.502 168.686 387.564 57.586 358.106 66.9C355.61 67.688 354.598 69.654 353.396 71.794ZM298.476 52.018C302.968 54.404 305.702 57.318 308.402 61.592C315.27 50.336 318.514 22.4004 337.45 27.2038C339.146 27.6342 340.794 28.4262 342.568 28.0146C340.766 22.4952 338.472 18.5894 333.064 15.8812C313.562 6.11742 303.484 38.486 298.476 52.018ZM357.5 18.7604C358.42 19.3038 359.63 19.826 360.324 20.6314C390.116 23.6452 385.128 50.558 393.45 57.404C396 54.21 400.436 51.684 403.78 49.304C397.054 33.767 377.684 -11.3354 357.5 18.7604Z" fill="#010000"/>
<path d="M308.402 61.592C315.27 50.336 318.514 22.4004 337.45 27.2038C339.146 27.6342 340.794 28.4262 342.568 28.0146L345.244 30.3074C344.97 40.734 345.352 51.164 345.244 61.592C338.594 60.506 334.636 59.948 328.446 62.912C320.59 69.232 316.308 75.634 312.438 84.918C312.02 76.714 311.546 69.286 308.402 61.592Z" fill="#FF9933"/>
<path d="M357.5 59.374C356.684 50.178 353.774 26.1878 357.5 18.7604C358.42 19.3038 359.63 19.826 360.324 20.6314C390.116 23.6452 385.128 50.558 393.45 57.404C390.036 66.466 388.624 71.896 389.832 81.7C386.93 77.738 384.76 73.3 381.818 69.37C374.796 61.694 367.958 59.214 357.5 59.374Z" fill="#FF9933"/>
<path d="M209.918 310.64C236.258 288.55 238.29 242.902 244.338 211.466C250.454 179.672 270.466 92.478 289.126 72.344C296.85 64.01 295.906 70.952 302.858 69.37C303.714 71.612 304.346 73.842 304.54 76.246C306.518 100.934 295.88 130.518 290.474 154.916C284.67 181.106 281.602 207.674 277.596 234.158C275.684 246.796 272.09 260.87 271.884 273.502C272.982 275.556 273.882 275.928 275.998 276.682C282.288 274.66 283.442 246.722 284.346 240.424L291.63 192.816C295.472 167.462 311.14 84.59 330.814 70.814C335.41 67.594 341.772 66.596 345.244 71.794C344.396 76.346 343.902 80.384 345.244 84.918C344.624 92.376 345.122 99.698 345.196 107.16L345.244 139.736C319.578 145.978 321.002 163.94 322.02 186.486L323.824 221.12C326.778 279.462 330.13 338.688 338.64 396.548C339.736 404.002 341.282 411.554 341.84 419.058C339.402 423.108 338.242 428.086 336.896 432.58C321.496 477.704 277.696 543.016 236.862 571.344C233.78 573.614 230.73 576.04 227.492 578.076C192.03 567.156 161.524 536.472 141.604 506.06C144.852 502.306 147.858 498.456 150.73 494.406C189.442 432.144 178.14 433.452 168.514 365.44C163.278 328.45 158.176 288.584 154.01 251.336C152.412 237.064 156.742 239.492 169 239.004C192.788 261.126 190.564 314.706 220.568 338.952C223.346 341.196 230.35 346.874 233.83 342.944C237.936 338.31 222.462 330.048 219.808 327.226C215.444 322.584 212.536 316.37 209.918 310.64ZM275.998 276.682C269.362 290.856 287.23 306.49 292.374 270.406C297.374 235.344 302.694 204.154 309.304 169.45C313 150.044 322.956 78.042 345.244 71.794C341.772 66.596 335.41 67.594 330.814 70.814C311.14 84.59 295.472 167.462 291.63 192.816L284.346 240.424C283.442 246.722 282.288 274.66 275.998 276.682Z" fill="#FF9933"/>
<path d="M399.466 64.906C421.298 69.65 428.268 97.712 434.738 116.04C452.336 165.884 462.936 217.93 477.058 268.808C481.258 283.94 485.546 301.58 499.726 310.64C495.782 317.704 490.626 326.042 484.454 331.298C481.052 334.194 474.114 336.672 472.782 340.972C475.15 350.514 484.902 341.804 488.866 338.392C516.812 314.34 513.604 272.264 533.168 243.546C539.57 234.15 551.078 224.936 562.064 232.636C558.996 240.584 552.656 246.898 550.502 255.26C541.146 291.586 544.594 338.798 535.472 379.638C523.24 434.396 532.332 460.188 569.142 506.06C546.184 534.848 520.076 555.088 488.578 573.818C484.428 576.284 477.806 578.006 480.1 583.96C477.254 584.836 473.928 584.976 470.96 584.794C467.47 576.672 455.21 571.472 448.792 565.43C446.446 560.666 429.822 545.694 425.11 540.592C369.53 480.416 358.08 408.352 352.32 330.098L344.376 227.87C342.514 202.026 339.7 173.32 349.07 148.556C363.896 156.076 366.924 191.066 369.604 205.736C374.154 230.636 378.084 255.772 381.152 280.9C381.77 285.972 384.46 290.546 389.832 286.042C389.1 275.26 386.88 264.164 385.386 253.434C382.256 230.966 375.374 154.398 354.498 142.264C355.322 120.298 349.81 98.02 351.618 76.246C352.094 74.658 352.652 73.274 353.396 71.794C373.668 70.192 381.818 112.712 386.24 127.656C398.66 169.608 406.686 212.8 416.286 255.468C419.284 268.792 419.248 284.57 433.498 274.906C436.092 274.896 437.946 274.888 440.218 273.502C434.49 236.89 423.068 190.418 413.698 154.5C408.91 136.144 389.594 82.398 399.466 64.906Z" fill="#FF9933"/>
</svg>
